<?xml version="1.0" standalone="no"?>
<!DOCTYPE svg PUBLIC "-//W3C//DTD SVG 20010904//EN"
 "http://www.w3.org/TR/2001/REC-SVG-20010904/DTD/svg10.dtd">
<svg version="1.0" xmlns="http://www.w3.org/2000/svg"
 width="512.000000pt" height="512.000000pt" viewBox="0 0 512.000000 512.000000"
 preserveAspectRatio="xMidYMid meet">
<metadata>
Created by potrace 1.15, written by Peter Selinger 2001-2017
</metadata>
<g transform="translate(0.000000,512.000000) scale(0.100000,-0.100000)"
fill="#000000" stroke="none">
<path d="M2588 3438 c-32 -6 -58 -14 -58 -19 0 -5 -8 -9 -18 -9 -10 0 -23 -5
-30 -12 -7 -7 -12 -9 -12 -5 0 8 -27 -13 -92 -72 -26 -24 -48 -50 -48 -57 0
-8 -4 -14 -9 -14 -5 0 -12 -12 -16 -27 -3 -15 -12 -31 -18 -35 -16 -10 -15
-220 1 -226 7 -2 12 -12 12 -22 0 -9 7 -23 16 -31 8 -7 13 -21 11 -31 -3 -10
-1 -16 4 -13 4 3 26 -11 47 -32 43 -42 68 -61 95 -69 9 -4 17 -10 17 -15 0 -4
16 -11 35 -15 19 -3 35 -10 35 -14 0 -4 20 -11 45 -14 24 -4 47 -11 50 -16 3
-5 30 -12 60 -15 31 -4 58 -11 61 -16 3 -5 18 -9 34 -9 16 0 32 -4 35 -10 3
-5 13 -10 22 -10 30 0 101 -43 107 -64 15 -55 7 -93 -26 -120 -18 -14 -44 -26
-60 -26 -15 0 -28 -4 -28 -10 0 -5 -11 -10 -25 -10 -14 0 -25 4 -25 9 0 4 -18
11 -41 14 -43 6 -109 61 -109 92 0 8 -4 15 -10 15 -5 0 -10 10 -10 23 0 12 -3
33 -7 45 -6 26 4 26 -316 6 -95 -6 -110 -15 -89 -57 6 -12 14 -46 17 -74 4
-29 11 -53 15 -53 5 0 11 -13 15 -30 4 -16 11 -30 16 -30 5 0 9 -7 9 -15 0
-19 126 -145 146 -145 7 0 14 -5 14 -11 0 -5 4 -8 9 -4 5 3 12 1 16 -5 3 -5
15 -10 26 -10 10 0 19 -4 19 -9 0 -10 199 -31 296 -31 90 0 248 19 252 31 2 5
14 9 27 9 13 0 27 5 30 10 4 6 11 8 16 5 5 -4 9 -2 9 3 0 5 8 12 18 16 40 13
142 104 142 127 0 6 7 8 16 5 9 -3 12 -2 9 4 -4 6 6 36 22 68 25 51 28 67 28
162 0 95 -3 111 -28 162 -30 61 -89 130 -121 142 -10 3 -16 12 -13 19 3 8 -6
12 -26 13 -17 1 -33 6 -35 13 -2 6 -12 11 -23 11 -10 0 -19 4 -19 9 0 5 -18
12 -40 16 -22 4 -40 10 -40 15 0 4 -27 11 -60 15 -33 4 -60 11 -60 15 0 5 -29
12 -65 15 -36 4 -65 11 -65 15 0 4 -20 10 -45 13 -57 8 -85 32 -85 73 0 53 29
69 123 69 55 0 82 -4 85 -12 2 -7 10 -13 17 -13 17 0 55 -61 55 -89 0 -34 28
-57 51 -43 11 7 59 12 116 12 54 0 129 3 167 7 l69 6 -6 65 c-4 36 -11 68 -16
71 -4 3 -12 21 -16 39 -3 17 -10 32 -13 32 -4 0 -20 20 -37 45 -16 25 -38 47
-48 51 -10 3 -16 12 -13 19 3 9 -2 11 -15 8 -10 -3 -19 0 -19 6 0 6 -6 11 -12
11 -7 0 -26 7 -42 15 -16 9 -59 20 -95 25 -84 12 -358 11 -433 -2z"/>
<path d="M3933 3438 c-35 -5 -63 -14 -63 -19 0 -5 -9 -9 -19 -9 -11 0 -23 -5
-26 -10 -4 -6 -11 -8 -16 -5 -5 3 -21 -5 -36 -19 -15 -15 -32 -26 -38 -26 -5
0 -40 -31 -77 -69 -37 -38 -70 -66 -73 -63 -3 4 -3 -1 1 -11 3 -10 1 -17 -5
-17 -6 0 -11 -5 -11 -11 0 -6 -6 -25 -14 -42 -43 -97 -57 -166 -63 -302 -5
-103 8 -230 27 -265 4 -9 11 -35 15 -58 4 -23 10 -42 15 -42 4 0 11 -12 14
-26 4 -14 18 -38 32 -52 14 -15 23 -35 20 -45 -2 -9 0 -14 6 -11 11 7 90 -75
82 -87 -3 -5 3 -6 12 -2 14 5 16 3 11 -11 -4 -10 -3 -15 3 -11 9 6 69 -22 80
-37 3 -3 19 -10 35 -14 17 -4 32 -11 35 -15 7 -10 183 -29 276 -29 96 0 254
20 254 31 0 5 9 9 19 9 11 0 23 5 26 10 4 6 11 8 16 5 5 -4 9 -1 9 4 0 6 6 11
14 11 8 0 46 32 86 70 39 39 75 68 80 65 6 -3 7 1 4 9 -5 14 22 74 39 87 5 3
8 8 7 10 -1 5 8 34 20 64 28 68 20 95 -27 95 -13 0 -23 4 -23 9 0 5 -22 11
-50 15 -27 4 -52 11 -55 16 -3 6 -17 10 -31 10 -13 0 -24 4 -24 9 0 5 -22 12
-50 16 -27 4 -50 11 -50 16 0 17 -35 9 -47 -10 -6 -10 -15 -35 -18 -55 -4 -20
-11 -36 -16 -36 -5 0 -9 -8 -9 -18 0 -22 -57 -92 -75 -92 -8 0 -15 -6 -17 -12
-3 -9 -30 -13 -89 -13 -77 0 -88 3 -128 30 -53 36 -77 75 -92 153 -16 82 -22
232 -10 256 5 12 12 42 16 69 3 26 10 47 16 47 5 0 9 6 9 14 0 23 89 95 126
102 19 3 61 4 93 2 66 -5 123 -39 144 -87 6 -14 15 -28 18 -31 4 -3 8 -14 10
-25 5 -22 52 -33 72 -17 7 5 40 13 75 17 34 4 64 11 67 15 3 5 34 12 70 15 36
4 65 12 65 17 0 6 11 8 24 6 26 -5 26 1 -1 52 -7 14 -13 33 -13 43 0 9 -3 17
-7 17 -14 0 -46 78 -38 91 6 8 4 10 -5 4 -8 -5 -22 4 -41 26 -16 19 -29 37
-29 40 0 8 -89 69 -100 69 -6 0 -10 4 -10 9 0 5 -13 12 -30 16 -16 4 -30 10
-30 15 0 26 -350 39 -487 18z"/>
<path d="M340 2795 l0 -644 213 -3 212 -3 -3 648 -2 647 -210 0 -210 0 0 -645z"/>
<path d="M1315 3410 c-4 -16 -11 -32 -16 -35 -5 -4 -9 -15 -9 -26 0 -10 -4
-19 -10 -19 -5 0 -10 -10 -10 -22 -1 -13 -9 -41 -20 -63 -11 -22 -19 -48 -20
-57 0 -9 -4 -20 -10 -23 -5 -3 -10 -14 -10 -23 0 -9 -6 -29 -14 -44 -8 -15
-17 -40 -21 -57 -4 -17 -11 -33 -16 -36 -5 -4 -9 -15 -9 -26 0 -10 -4 -19 -9
-19 -5 0 -11 -18 -15 -40 -3 -22 -11 -40 -16 -40 -6 0 -10 -10 -10 -22 0 -13
-7 -36 -15 -52 -8 -15 -15 -33 -15 -40 0 -6 -7 -24 -15 -39 -8 -15 -17 -43
-21 -62 -3 -19 -10 -35 -15 -35 -5 0 -9 -9 -9 -19 0 -11 -4 -22 -9 -25 -5 -4
-12 -24 -16 -46 -4 -22 -10 -40 -15 -40 -5 0 -11 -18 -15 -40 -4 -22 -10 -40
-15 -40 -5 0 -11 -18 -15 -40 -4 -22 -11 -40 -16 -40 -5 0 -9 -9 -9 -21 0 -19
-18 -68 -41 -111 -5 -10 -9 -27 -9 -38 0 -19 6 -20 206 -20 151 0 209 3 218
13 11 11 29 70 43 140 3 15 9 27 14 27 5 0 8 6 6 13 -1 9 47 13 210 15 l211 2
7 -50 c4 -27 11 -52 16 -55 4 -3 11 -28 15 -55 l7 -50 224 0 225 0 -7 32 c-4
18 -11 39 -15 48 -21 40 -40 90 -40 104 0 9 -4 16 -9 16 -5 0 -12 18 -16 40
-4 22 -11 40 -15 40 -5 0 -12 20 -16 45 -3 25 -10 45 -15 45 -5 0 -12 18 -15
40 -4 22 -10 40 -15 40 -5 0 -9 9 -9 19 0 11 -4 22 -9 26 -5 3 -12 19 -16 36
-4 17 -13 42 -21 57 -8 15 -14 35 -14 44 0 9 -4 19 -9 22 -5 4 -12 24 -16 46
-4 22 -10 40 -15 40 -5 0 -11 18 -15 40 -4 22 -11 40 -16 40 -5 0 -9 7 -9 16
0 9 -7 32 -16 52 -9 21 -23 51 -30 69 -8 17 -14 40 -14 52 0 12 -4 21 -10 21
-5 0 -10 8 -10 18 0 9 -7 30 -15 45 -8 15 -17 43 -21 62 -3 19 -10 35 -14 35
-4 0 -11 17 -15 38 -4 20 -11 43 -17 50 -8 9 -67 12 -233 12 l-223 0 -7 -30z
m246 -430 c5 0 9 -8 9 -19 0 -22 26 -112 46 -158 8 -17 14 -42 14 -56 0 -14 4
-27 8 -29 5 -1 12 -14 15 -28 l6 -25 -114 0 c-126 0 -122 -2 -95 60 5 11 12
34 16 50 4 17 8 32 9 35 1 3 5 19 10 35 4 17 11 35 15 40 5 6 11 31 15 58 4
26 11 47 16 47 5 0 10 10 10 23 2 18 3 17 6 -5 2 -16 9 -28 14 -28z"/>
</g>
</svg>
