<svg id="Layer_2" data-name="Layer 2" xmlns="http://www.w3.org/2000/svg" viewBox="0 0 300 120"><defs><style>.cls-1{fill:#272e67;}</style></defs><title>IASC-vector</title><path class="cls-1" d="M9.39,18.22H28.72v83.56H9.39Z"/><path class="cls-1" d="M103.56,83.87H64.77l-7.4,17.91H37.56L74.8,18.22H93.9l37.36,83.56H111ZM97.48,69.19l-13.25-32L71,69.19Z"/><path class="cls-1" d="M133.41,93.54,140,79a49.14,49.14,0,0,0,27.57,8.71c11.46,0,16.11-3.82,16.11-9,0-15.64-48.58-4.89-48.58-35.93,0-14.2,11.46-26,35.21-26,10.51,0,21.25,2.51,29,7.4l-6,14.68a47.27,47.27,0,0,0-23.16-6.56c-11.45,0-15.87,4.29-15.87,9.55,0,15.39,48.58,4.77,48.58,35.45,0,14-11.58,25.9-35.45,25.9C154.18,103.21,140.81,99.27,133.41,93.54Z"/><path class="cls-1" d="M210.88,60c0-25.19,19.33-43.21,45.36-43.21,14.44,0,26.5,5.25,34.37,14.8L278.2,43.05a26.87,26.87,0,0,0-21-9.79c-15.63,0-26.74,11-26.74,26.74s11.11,26.74,26.74,26.74c8.36,0,15.4-3.34,21-9.91l12.41,11.46c-7.87,9.67-19.93,14.92-34.49,14.92C230.21,103.21,210.88,85.19,210.88,60Z"/></svg>