<svg class="cd-icons-sprite" xmlns="http://www.w3.org/2000/svg" xmlns:xlink="http://www.w3.org/1999/xlink"><symbol viewBox="0 0 48 48" id="cd-icon--add" xmlns="http://www.w3.org/2000/svg"><path d="M44 20H28V4a4 4 0 0 0-4-4 4 4 0 0 0-4 4v16H4a4 4 0 0 0 0 8h16v16a4 4 0 0 0 4 4 4 4 0 0 0 4-4V28h16a4 4 0 0 0 0-8z"/></symbol><symbol viewBox="0 0 48 48" id="cd-icon--add--white" xmlns="http://www.w3.org/2000/svg"><path fill="#fff" d="M44 20H28V4a4 4 0 0 0-4-4 4 4 0 0 0-4 4v16H4a4 4 0 0 0 0 8h16v16a4 4 0 0 0 4 4 4 4 0 0 0 4-4V28h16a4 4 0 0 0 0-8z"/></symbol><symbol viewBox="0 0 48 48" id="cd-icon--alert" xmlns="http://www.w3.org/2000/svg"><path d="M47.67 40.9L27.12 5.3a3.6 3.6 0 0 0-6.24 0L.33 40.9a2.4 2.4 0 0 0 2.08 3.6h43.18a2.4 2.4 0 0 0 2.08-3.6zM22 17.5a2 2 0 0 1 4 0v11a2 2 0 0 1-4 0zm2 21a2.5 2.5 0 1 1 2.5-2.5 2.5 2.5 0 0 1-2.5 2.5z"/></symbol><symbol viewBox="0 0 48 48" id="cd-icon--arrow-back" xmlns="http://www.w3.org/2000/svg"><path fill="#ff4d59" d="M34 48a4 4 0 0 1-2.83-1.17l-20-20a4 4 0 0 1 0-5.66l20-20a4 4 0 0 1 5.66 5.66L19.66 24l17.17 17.17A4 4 0 0 1 34 48z"/></symbol><symbol viewBox="0 0 48 48" id="cd-icon--arrow-down" xmlns="http://www.w3.org/2000/svg"><path d="M48 14a4 4 0 0 1-1.17 2.83l-20 20a4 4 0 0 1-5.66 0l-20-20a4 4 0 0 1 5.66-5.66L24 28.34l17.17-17.17A4 4 0 0 1 48 14z"/></symbol><symbol viewBox="0 0 48 48" id="cd-icon--arrow-down--highlighted" xmlns="http://www.w3.org/2000/svg"><path fill="#EB5C6D" d="M48 14a4 4 0 0 1-1.17 2.83l-20 20a4 4 0 0 1-5.66 0l-20-20a4 4 0 0 1 5.66-5.66L24 28.34l17.17-17.17A4 4 0 0 1 48 14z"/></symbol><symbol viewBox="0 0 48 48" id="cd-icon--arrow-left" xmlns="http://www.w3.org/2000/svg"><path d="M34 48a4 4 0 0 1-2.83-1.17l-20-20a4 4 0 0 1 0-5.66l20-20a4 4 0 0 1 5.66 5.66L19.66 24l17.17 17.17A4 4 0 0 1 34 48z"/></symbol><symbol viewBox="0 0 48 48" id="cd-icon--arrow-right" xmlns="http://www.w3.org/2000/svg"><path d="M14 48a4 4 0 0 1-2.83-6.83L28.34 24 11.17 6.83a4 4 0 0 1 5.66-5.66l20 20a4 4 0 0 1 0 5.66l-20 20A4 4 0 0 1 14 48z"/></symbol><symbol viewBox="0 0 48 48" id="cd-icon--arrow-up" xmlns="http://www.w3.org/2000/svg"><path d="M0 34a4 4 0 0 1 1.17-2.83l20-20a4 4 0 0 1 5.66 0l20 20a4 4 0 1 1-5.66 5.66L24 19.66 6.83 36.83A4 4 0 0 1 0 34z"/></symbol><symbol viewBox="0 0 48 48" id="cd-icon--arrow-up--highlighted" xmlns="http://www.w3.org/2000/svg"><path fill="#EB5C6D" d="M0 34a4 4 0 0 1 1.17-2.83l20-20a4 4 0 0 1 5.66 0l20 20a4 4 0 1 1-5.66 5.66L24 19.66 6.83 36.83A4 4 0 0 1 0 34z"/></symbol><symbol viewBox="0 0 48 48" id="cd-icon--blog" xmlns="http://www.w3.org/2000/svg"><path d="M37 2H11a8 8 0 0 0-8 8v19a8 8 0 0 0 8 8h14l8.8 8.8a.7.7 0 0 0 1.2-.5V37h2a8 8 0 0 0 8-8V10a8 8 0 0 0-8-8zm-1.5 27h-23a1.5 1.5 0 0 1 0-3h23a1.5 1.5 0 0 1 0 3zm0-8h-23a1.5 1.5 0 0 1 0-3h23a1.5 1.5 0 0 1 0 3zm0-8h-23a1.5 1.5 0 0 1 0-3h23a1.5 1.5 0 0 1 0 3z"/></symbol><symbol viewBox="0 0 48 48" id="cd-icon--bookmark" xmlns="http://www.w3.org/2000/svg"><path d="M38.32 44.57L24.68 31.79a1 1 0 0 0-1.37 0L9.68 44.57A1 1 0 0 1 8 43.84V3.15h32v40.69a1 1 0 0 1-1.68.73z"/></symbol><symbol viewBox="0 0 48 48" id="cd-icon--button-checked" xmlns="http://www.w3.org/2000/svg"><path d="M24 2a22 22 0 1 0 22 22A22 22 0 0 0 24 2zm14.06 16.37L23 33.83a2.92 2.92 0 0 1-2.9.8 3 3 0 0 1-1.6-.83L10 25.29A3 3 0 0 1 14.2 21l6.5 6.5 13.07-13.33a3 3 0 1 1 4.29 4.19z"/></symbol><symbol viewBox="0 0 48 48" id="cd-icon--button-pause" xmlns="http://www.w3.org/2000/svg"><path d="M24 2a22 22 0 1 0 22 22A22 22 0 0 0 24 2zm-3 30.85A1.15 1.15 0 0 1 19.85 34h-1.7A1.15 1.15 0 0 1 17 32.85v-17.7A1.15 1.15 0 0 1 18.15 14h1.69A1.15 1.15 0 0 1 21 15.15zm10 0A1.15 1.15 0 0 1 29.85 34h-1.7A1.15 1.15 0 0 1 27 32.85v-17.7A1.15 1.15 0 0 1 28.15 14h1.69A1.15 1.15 0 0 1 31 15.15z"/></symbol><symbol viewBox="0 0 48 48" id="cd-icon--button-play" xmlns="http://www.w3.org/2000/svg"><path d="M24 2a22 22 0 1 0 22 22A22 22 0 0 0 24 2zm8.91 22.92l-6.66 3.84-6.66 3.85a1.06 1.06 0 0 1-1.59-.92V16.31a1.06 1.06 0 0 1 1.59-.92l6.66 3.85 6.66 3.84a1.07 1.07 0 0 1 0 1.84z"/></symbol><symbol viewBox="0 0 48 48" id="cd-icon--button-stop" xmlns="http://www.w3.org/2000/svg"><path d="M24 2a22 22 0 1 0 22 22A22 22 0 0 0 24 2zm8 29a1 1 0 0 1-1 1H17a1 1 0 0 1-1-1V17a1 1 0 0 1 1-1h14a1 1 0 0 1 1 1z"/></symbol><symbol viewBox="0 0 48 48" id="cd-icon--button-unchecked" xmlns="http://www.w3.org/2000/svg"><path d="M24 2a22 22 0 1 0 22 22A22 22 0 0 0 24 2zm11.12 28.88a3 3 0 1 1-4.24 4.24L24 28.24l-6.88 6.88a3 3 0 0 1-4.24-4.24L19.76 24l-6.88-6.88a3 3 0 0 1 4.24-4.24L24 19.76l6.88-6.88a3 3 0 0 1 4.24 4.24L28.24 24z"/></symbol><symbol viewBox="0 0 48 48" id="cd-icon--call-for-action" xmlns="http://www.w3.org/2000/svg"><path d="M44 18v10a4 4 0 0 0 4-4v-2a4 4 0 0 0-4-4zM39 6.24L18.58 16a1.13 1.13 0 0 0-.58 1v15a1.13 1.13 0 0 0 .58 1L39 41.76a2.11 2.11 0 0 0 3-2V8.24a2.11 2.11 0 0 0-3-2zM15 17H3a3 3 0 0 0-3 3v9a3 3 0 0 0 3 3h4v7a3 3 0 0 0 6 0v-7h2a1 1 0 0 0 1-1V18a1 1 0 0 0-1-1z"/></symbol><symbol class="ascd-icons-sprite" viewBox="0 0 0 0" id="cd-icon--cd-icons-sprite" xmlns="http://www.w3.org/2000/svg"><symbol viewBox="0 0 48 48" id="ascd-icon--add" xmlns="http://www.w3.org/2000/svg"><path d="M44 20H28V4a4 4 0 0 0-4-4 4 4 0 0 0-4 4v16H4a4 4 0 0 0 0 8h16v16a4 4 0 0 0 4 4 4 4 0 0 0 4-4V28h16a4 4 0 0 0 0-8z"/></symbol><symbol viewBox="0 0 48 48" id="ascd-icon--add--white" xmlns="http://www.w3.org/2000/svg"><path fill="#fff" d="M44 20H28V4a4 4 0 0 0-4-4 4 4 0 0 0-4 4v16H4a4 4 0 0 0 0 8h16v16a4 4 0 0 0 4 4 4 4 0 0 0 4-4V28h16a4 4 0 0 0 0-8z"/></symbol><symbol viewBox="0 0 48 48" id="ascd-icon--arrow-down" xmlns="http://www.w3.org/2000/svg"><path d="M48 14a4 4 0 0 1-1.17 2.83l-20 20a4 4 0 0 1-5.66 0l-20-20a4 4 0 0 1 5.66-5.66L24 28.34l17.17-17.17A4 4 0 0 1 48 14z"/></symbol><symbol viewBox="0 0 48 48" id="ascd-icon--arrow-down--highlighted" xmlns="http://www.w3.org/2000/svg"><path fill="#EB5C6D" d="M48 14a4 4 0 0 1-1.17 2.83l-20 20a4 4 0 0 1-5.66 0l-20-20a4 4 0 0 1 5.66-5.66L24 28.34l17.17-17.17A4 4 0 0 1 48 14z"/></symbol><symbol viewBox="0 0 48 48" id="ascd-icon--arrow-left" xmlns="http://www.w3.org/2000/svg"><path d="M34 48a4 4 0 0 1-2.83-1.17l-20-20a4 4 0 0 1 0-5.66l20-20a4 4 0 0 1 5.66 5.66L19.66 24l17.17 17.17A4 4 0 0 1 34 48z"/></symbol><symbol viewBox="0 0 48 48" id="ascd-icon--arrow-right" xmlns="http://www.w3.org/2000/svg"><path d="M14 48a4 4 0 0 1-2.83-6.83L28.34 24 11.17 6.83a4 4 0 0 1 5.66-5.66l20 20a4 4 0 0 1 0 5.66l-20 20A4 4 0 0 1 14 48z"/></symbol><symbol viewBox="0 0 48 48" id="ascd-icon--arrow-up" xmlns="http://www.w3.org/2000/svg"><path d="M0 34a4 4 0 0 1 1.17-2.83l20-20a4 4 0 0 1 5.66 0l20 20a4 4 0 1 1-5.66 5.66L24 19.66 6.83 36.83A4 4 0 0 1 0 34z"/></symbol><symbol viewBox="0 0 48 48" id="ascd-icon--arrow-up--highlighted" xmlns="http://www.w3.org/2000/svg"><path fill="#EB5C6D" d="M0 34a4 4 0 0 1 1.17-2.83l20-20a4 4 0 0 1 5.66 0l20 20a4 4 0 1 1-5.66 5.66L24 19.66 6.83 36.83A4 4 0 0 1 0 34z"/></symbol><symbol viewBox="0 0 32 32" id="ascd-icon--creative-commons" xmlns="http://www.w3.org/2000/svg"><path fill="#fff" d="M15.886 28.968c-7.159.009-12.857-5.804-12.884-12.802C2.975 9.069 8.849 3.104 15.904 3.285c6.356-.152 12.793 4.975 12.829 12.839.035 7.721-6.201 12.836-12.847 12.844zM15.907.254C6.554.198.034 8.091 0 16.082-.036 24.585 6.961 32.009 15.827 32c8.53-.009 15.954-6.753 15.885-15.803.111-8.79-6.935-15.89-15.805-15.943z"/><path fill="#fff" d="M25.263 18.406c-.958 1.921-3.394 2.767-5.132 2.632-4.489-.347-5.501-3.918-4.747-6.567.701-2.462 3.115-3.831 6.002-3.466 1.667.21 2.961.886 3.863 2.334l-2.382 1.157c-.165-.166-.288-.268-.381-.388-.535-.7-1.25-.982-2.19-.822-.93.158-1.479.714-1.589 1.482a8.264 8.264 0 0 0 .039 2.482c.126.777.707 1.336 1.62 1.462.99.137 1.856-.059 2.38-.931.065-.108.161-.201.309-.382l2.208 1.007z"/><path fill="#fff" d="M16.842 13.347l-2.391 1.138c-.156-.15-.304-.262-.412-.4-.545-.698-1.269-.964-2.203-.797-.888.159-1.44.687-1.541 1.432a8.907 8.907 0 0 0 .03 2.557c.122.784.725 1.323 1.637 1.444.956.126 1.8-.056 2.326-.887.081-.128.193-.241.346-.43l2.206 1.014c-.357.81-.978 1.311-1.659 1.759-2.518 1.661-6.749.909-7.962-1.851-1.013-2.305-.422-5.145 1.656-6.505 2.136-1.398 5.664-1.088 7.33.691.212.226.376.49.636.834z"/></symbol><symbol viewBox="0 0 28 48" id="ascd-icon--help" xmlns="http://www.w3.org/2000/svg"><circle class="asakcls-1" cx="14" cy="44" r="4"/><path class="asakcls-1" d="M28 14a14 14 0 0 0-28 0 4 4 0 0 0 8 0 6 6 0 1 1 6 6 4 4 0 0 0-4 4v9a4 4 0 0 0 8 0v-5.59A14.02 14.02 0 0 0 28 14z"/></symbol><symbol viewBox="0 0 41.9 37" id="ascd-icon--ocha-logo" xmlns="http://www.w3.org/2000/svg"><defs><style>.asalcls-1{fill:#fff}</style></defs><g id="asalPage-1"><g id="asalArtboard"><g id="asalocha-logo"><g id="asalGroup"><path id="asalShape" class="asalcls-1" d="M17.6 15.6a3.3 3.3 0 1 1 3.3 3.3v-.4a2.9 2.9 0 1 0-2.9-2.9 2.9 2.9 0 0 0 2.9 2.9v.4a3.33 3.33 0 0 1-3.3-3.3"/><path id="asalShape-2" data-name="Shape" class="asalcls-1" d="M15 15.6a6 6 0 1 1 6 6v-.4a5.6 5.6 0 1 0-5.6-5.6 5.59 5.59 0 0 0 5.6 5.6v.4a6 6 0 0 1-6-6"/><path id="asalShape-3" data-name="Shape" class="asalcls-1" d="M12.1 15.6a8.9 8.9 0 1 1 8.9 8.9V24a8.54 8.54 0 0 0 8.5-8.4 8.5 8.5 0 1 0-17 0A8.41 8.41 0 0 0 21 24v.4a8.77 8.77 0 0 1-8.9-8.8"/><path id="asalShape-4" data-name="Shape" class="asalcls-1" d="M9.3 15.6A11.65 11.65 0 1 1 21 27.2v-.4A11.2 11.2 0 1 0 9.8 15.6 11.18 11.18 0 0 0 21 26.8v.4A11.63 11.63 0 0 1 9.3 15.6"/><path id="asalShape-5" data-name="Shape" class="asalcls-1" d="M6.3 15.6A14.7 14.7 0 1 1 21 30.3v-.4A14.3 14.3 0 1 0 6.7 15.6 14.3 14.3 0 0 0 21 29.9v.4A14.66 14.66 0 0 1 6.3 15.6"/><path id="asalRectangle-path" class="asalcls-1" d="M20.7 1.1h.4v11.4h-.4z"/><path id="asalShape-6" data-name="Shape" class="asalcls-1" d="M10.6 5.5l.3-.3 8 8-.3.3-8-8z"/><path id="asalRectangle-path-2" data-name="Rectangle-path" class="asalcls-1" d="M6.5 15.4h11.4v.4H6.5z"/><path id="asalShape-7" data-name="Shape" class="asalcls-1" d="M10.6 25.7l8-8 .3.3-8 8-.3-.3z"/><path id="asalRectangle-path-3" data-name="Rectangle-path" class="asalcls-1" d="M20.7 18.7h.4v11.4h-.4z"/><path id="asalRectangle-path-4" data-name="Rectangle-path" class="asalcls-1" transform="rotate(-44.83 27.15 21.766)" d="M26.94 16.11h.4v11.3h-.4z"/><path id="asalRectangle-path-5" data-name="Rectangle-path" class="asalcls-1" d="M24.1 15.4h11.4v.4H24.1z"/><path id="asalShape-8" data-name="Shape" class="asalcls-1" d="M23 13.2l8.1-8 .2.3-8 8-.3-.3z"/><path id="asalShape-9" data-name="Shape" class="asalcls-1" d="M18.7 16.5c.1 0 .1.1.1.2h.1a2.51 2.51 0 0 0 .4-.7.1.1 0 0 0 .1-.1c0-.1-.2-.2-.2-.3-.1.2-.3 0-.4.1v.1h.1v.2a.37.37 0 0 0-.3-.1c.1 0 0 0 0 .1a.75.75 0 0 0-.5.1c-.1 0-.1 0-.2-.1-.1.1-.1.2-.2.2l-.1-.1c.1-.1.2-.1.2-.2v-.3c.1-.1.1-.2.2-.2s.3.1.4 0l.1.1v.1c-.1.1-.2.1-.2.2s0 .1.1.1.1-.1.2-.1h.4c.1 0 .1-.3 0-.4v-.2c0-.1.2-.1.2 0v.1s0 .1.1 0v-.2a.35.35 0 0 0 .2.1h.2c.1 0 .1-.1 0-.2h-.1a.31.31 0 0 1-.2.1c-.1 0-.1-.1-.2-.1s-.2.1-.2 0-.1-.1-.1-.2l.1-.1a.37.37 0 0 0 .3-.1.35.35 0 0 1 .1-.2h.1a.37.37 0 0 0 .3-.1c.1 0 .2-.1.3-.2s.1-.1.2-.1a.1.1 0 0 1 .1-.1v-.5a.1.1 0 0 1 .1-.1h-.1s-.1-.1 0-.1.2 0 .2-.1a.19.19 0 0 0-.1-.3c-.1-.1-.2 0-.3 0a.1.1 0 0 1-.1.1c-.1 0-.2-.1-.1-.2v-.1h-.1l-.3.3v.1c0 .1 0 .2-.1.2h-.1c0 .1.2.1.1.2s-.2.1-.4.2a2.72 2.72 0 0 1-.9 0h-.5c-.1 0-.1.1-.2.2v-.2c0-.1-.1 0-.1-.1-.2-.4-.7-.3-1.1-.3a.1.1 0 0 0-.1.1c-.1.1-.2 0-.3 0l-.1.1c-.1 0-.2-.1-.3 0s-.1.1-.2.1v.1h-.1c-.1 0-.3 0-.3.1s0 .3-.1.3a.6.6 0 0 0-.4.1c-.1 0-.1.1-.2.1a2.45 2.45 0 0 0-.4 1.2v.1c-.2.4-.3.6-.6 1.1-.1.2-.2.6 0 .7s0 .2-.2.2-.4 0-.4-.2-.2-.1-.3-.1h-.4c-.2 0-.2.3-.3.4s-.3.1-.3.2v.2a.1.1 0 0 0-.1.1v.1c0 .2-.1.3 0 .5v.1a.9.9 0 0 1-.1.5c-.1.2-.3.2-.5.2h-1c-.1 0-.1-.1-.2-.1a.31.31 0 0 1-.1-.2c-.1-.1-.3 0-.4.1.1 0 0 .1 0 .1s-.2.1-.3.2-.2-.2-.2-.3-.1-.1-.2-.1v.1h-.1c-.1.1.1.1.1.1v.1h-.1a.1.1 0 0 1-.1.1c-.1 0-.1.1-.1 0v-.2h-.1c0 .1 0 .1-.1.1v.1h.2a.37.37 0 0 1 .1.3c0 .1 0 .2-.1.1s0-.2 0-.3h-.1c.1.2-.1.3.1.5s-.2.2-.1.2a.35.35 0 0 0 .2.1v-.1s.1-.1.1 0v.1H8v.4c0 .1.2 0 .2.1s-.1.1 0 .2a.1.1 0 0 1 .1.1v.1a.1.1 0 0 1 .1.1c.1 0 .1 0 .1-.1s.1-.1.1-.2 0-.1-.1 0V21c0-.1-.1-.1-.1-.2s.1 0 .2-.1a.1.1 0 0 1 .1.1v.1a.1.1 0 0 1 .1.1c.1 0 .1.1.2.2h.3v-.1l.1.1a.37.37 0 0 0 .1.3h.1l.1.1h.1a.1.1 0 0 1 .1.1c.1 0 .2 0 .2.1s.1.2.2.4a29772.51 29772.51 0 0 1 .2.2.37.37 0 0 0 .3.1.35.35 0 0 1 .2-.1h.1c.1.2.1.4.3.4s.1.1.2.2h.2a.1.1 0 0 0 .1.1c.1.1.2.1.2.2v.1c.1 0 .2-.1.2 0s.2.1.2.2h.1v-.1c0-.1.1 0 .2-.1s.1-.2.1-.2.2.1.3.2h.1c.1.1.1.3.2.3s.2.1.4.2.2.1.3.1h.1c.1 0 .1 0 .2-.1s.3-.1.4-.2l.1-.1c.2-.1.5.1.7 0s.1 0 .2-.1.2-.3.1-.4-.2-.5-.3-.7l-.3-.3h-.1c-.1 0-.1-.1-.1-.2a.1.1 0 0 1-.1-.1v-.3c-.1 0-.2-.1-.4-.1a.1.1 0 0 1-.1-.1v-.1a.37.37 0 0 1 .3-.1v-.3a.1.1 0 0 0-.1-.1c0-.1.1-.2 0-.3s-.2-.2-.2-.3a.1.1 0 0 1-.1-.1v-.5c0-.1-.1-.1 0-.2l.1-.1c.1 0 .1-.1.1-.2a.14.14 0 0 0-.2 0v-.3l-.1-.1v-.2s0-.1-.1 0v-.2c0-.1-.1-.2-.2-.1a.14.14 0 0 1-.2 0V18a.1.1 0 0 0 .1-.1.14.14 0 0 0 0-.2c-.1-.1-.2-.2-.1-.3-.1 0-.3 0-.3-.2s0-.3-.1-.4v-.3a.1.1 0 0 1 .1-.1c.2 0 .4 0 .4-.1s-.1-.3 0-.3.4 0 .6-.2c.1 0 .1-.1 0-.2a.35.35 0 0 0-.1-.2c-.1-.1-.2 0-.3-.2V15c0-.1.1-.1.2-.2s.3 0 .5.1l.1.1v.1c0 .2.1.4 0 .6s-.1.1-.1.2h.1c0 .1.1.3 0 .4s-.1 0-.3 0-.1 0-.1.1l.1.1c.4.1.5.1.9.2.1 0 .1.1.2.1h.3a.1.1 0 0 0 .1.1c.1.1.1.3.2.3a.14.14 0 0 1 .2 0c-.1.1 0 .2 0 .3s.2.1.3.2.2.1.2 0-.1-.2 0-.3c.1.2 0 .4.1.6.1.1.1.2.2.2s.1-.1.1-.2v-.1c0-.1 0-.1.1-.2s.1-.2.1-.3v-.1c0-.1.2-.2.3-.2V17c.1 0 0-.2.1-.2s.1-.1.1-.2.1-.1 0-.1c.5.1.5 0 .5 0"/><path id="asalShape-10" data-name="Shape" class="asalcls-1" d="M14.5 16.3h-.1v.1l.1.1v.3c0 .1.1.2.2.1s.2-.3.1-.4-.1-.1-.3-.2"/><path id="asalShape-11" data-name="Shape" class="asalcls-1" d="M14.3 17.2c.1.2.2.1.3.1v-.1c-.1-.1-.1-.1-.3 0 .1-.1 0-.1 0-.1v.1"/><path id="asalShape-12" data-name="Shape" class="asalcls-1" d="M14.6 17.6c0-.2-.1-.2-.2-.1s0 .3.1.4a.1.1 0 0 0 .1.1c0 .1.1 0 .2 0s0-.1.1-.1c-.1-.1-.2-.3-.3-.3"/><path id="asalShape-13" data-name="Shape" class="asalcls-1" d="M14.3 16.8c0-.1-.1-.1 0 0-.1 0-.1 0-.1.1s0 .2.1.2a.1.1 0 0 0 .1-.1c-.1-.1-.1-.1-.1-.2"/><path id="asalShape-14" data-name="Shape" class="asalcls-1" d="M14.7 17.4l.1-.1h.1v-.1c-.1 0-.1.1-.2.1s0 .1 0 .1"/><path id="asalShape-15" data-name="Shape" class="asalcls-1" d="M14.6 18.3c0 .1 0 .1.1.1h.1v-.1h-.2"/><path id="asalShape-16" data-name="Shape" class="asalcls-1" d="M14.8 19c0-.1.1-.1 0-.2h-.1a.35.35 0 0 0 .1.2"/><path id="asalShape-17" data-name="Shape" class="asalcls-1" d="M8.5 21.5v.1h.2c-.1 0-.1-.2-.2-.1"/><path id="asalShape-18" data-name="Shape" class="asalcls-1" d="M9.1 22.2c-.1.1.1.2.2.2v-.2a.14.14 0 0 0-.2 0"/><path id="asalShape-19" data-name="Shape" class="asalcls-1" d="M9.4 22.6c0 .2.1.3.2.3.1-.2 0-.3-.2-.3"/><path id="asalShape-20" data-name="Shape" class="asalcls-1" d="M19.5 17.4a1.27 1.27 0 0 1 .6-.1c.4 0 .4-.6.6-.9a.6.6 0 0 0-.1-.4c-.1-.2-.6 0-.7-.2s.3.1.3-.1 0-.1-.1-.2h-.2a2 2 0 0 0-.4.8 5.38 5.38 0 0 0-.9 1.2c0 .1 0 .1.1.2.3.1.6-.2.8-.3"/><path id="asalShape-21" data-name="Shape" class="asalcls-1" d="M21.3 16.4c-.1 0-.1 0-.2.1v.2h.1c0-.1 0-.1-.1-.1.2-.1.2-.2.2-.2"/><path id="asalShape-22" data-name="Shape" class="asalcls-1" d="M20 17.9c.1.2.5.1.5 0s-.3-.2-.4-.2.1.1-.1.2"/><path id="asalShape-23" data-name="Shape" class="asalcls-1" d="M20.5 19.2a.37.37 0 0 0 .1-.3l-.3.3h.2"/><path id="asalShape-24" data-name="Shape" class="asalcls-1" d="M22.3 16.5v-.1h-.2c-.1 0-.1-.1-.1-.2s-.1-.2-.1-.3-.1.2-.1.2c.2.2.3.5.5.4"/><path id="asalShape-25" data-name="Shape" class="asalcls-1" d="M19.9 15.3c-.1-.1-.1 0 0 0-.1.1 0 .1 0 0"/><path id="asalShape-26" data-name="Shape" class="asalcls-1" d="M8.1 19.1A.1.1 0 0 0 8 19h-.1v.1a.14.14 0 0 0 .2 0"/><path id="asalShape-27" data-name="Shape" class="asalcls-1" d="M8.8 19.1c.1 0 .2-.1.1-.2s-.3 0-.2.1c-.1.1 0 .2.1.1"/><path id="asalShape-28" data-name="Shape" class="asalcls-1" d="M20.2 12.1c0-.1.1-.1.1-.2h-.1c-.1 0-.1.1 0 .2"/><path id="asalShape-29" data-name="Shape" class="asalcls-1" d="M20.5 12s.1-.1 0-.1h-.1a.1.1 0 0 0 .1.1"/><path id="asalShape-30" data-name="Shape" class="asalcls-1" d="M19.4 14.6c0 .1.2.3.3.2a.14.14 0 0 0 0-.2.19.19 0 0 0-.3 0"/><path id="asalShape-31" data-name="Shape" class="asalcls-1" d="M19.7 15.4v-.1h-.3a.1.1 0 0 0 .1.1c0-.1.1 0 .2 0"/><path id="asalShape-32" data-name="Shape" class="asalcls-1" d="M19.4 15.6c-.1 0 0 .1 0 .2s.1 0 .2-.1.1-.2 0-.2-.2 0-.2.1"/><path id="asalShape-33" data-name="Shape" class="asalcls-1" d="M19.2 15.3c0 .1-.1.2 0 .3s.1 0 .1 0 0-.2.1-.2h-.1v-.1h-.1"/><path id="asalShape-34" data-name="Shape" class="asalcls-1" d="M26.8 22.4c.1 0 0-.1 0 0"/><path id="asalShape-35" data-name="Shape" class="asalcls-1" d="M21 18.5l-.1-.1c0-.1-.1.1-.2 0 .1.1 0 .1-.1.2a.1.1 0 0 0 .1.1c0 .1-.1.1 0 .2l-.1.1s-.1.1 0 .1.2-.1.3-.1h.1c.1 0 .1-.1.2-.2H21s-.1 0 0-.3"/><path id="asalShape-36" data-name="Shape" class="asalcls-1" d="M21.6 20.4c0 .1.1.1 0 0 .1 0 .1-.1.1-.2h-.1v.2"/><path id="asalShape-37" data-name="Shape" class="asalcls-1" d="M21.7 20.2c.1 0 0-.1 0-.1h-.1a.1.1 0 0 0 .1.1"/><path id="asalShape-38" data-name="Shape" class="asalcls-1" d="M22.3 20.5c-.1 0-.1-.1-.2 0H22v.1c.2-.1.2-.1.3-.1"/><path id="asalShape-39" data-name="Shape" class="asalcls-1" d="M23.3 20.4v-.1c-.1 0-.2.1-.3 0v.1h-.1c.2.1.3 0 .4 0"/><path id="asalShape-40" data-name="Shape" class="asalcls-1" d="M23.7 20c0 .2.2.1.2 0s0-.1-.2 0l.1-.1a.1.1 0 0 1-.1.1"/><path id="asalShape-41" data-name="Shape" class="asalcls-1" d="M28.5 16.8c0 .1.1.1.2.1a.37.37 0 0 0 .3-.1.27.27 0 0 0-.3-.3c-.2.1-.2.2-.2.3"/><path id="asalShape-42" data-name="Shape" class="asalcls-1" d="M28.5 21.9h-.1c-.1.5-.6 1.2 0 1.5.2.2.5-.1.6-.3s0-1-.5-1.2"/><path id="asalShape-43" data-name="Shape" class="asalcls-1" d="M27 19.7c-.1 0-.1.2 0 .2a.1.1 0 0 0 .1-.1v-.1H27"/><path id="asalShape-44" data-name="Shape" class="asalcls-1" d="M27.4 24.8v.2s.2-.1 0-.2"/><path id="asalShape-45" data-name="Shape" class="asalcls-1" d="M29.7 13.1h-.1v.2c-.2.4-.7.9-.4 1.4a1.38 1.38 0 0 0 .3-.4 10.37 10.37 0 0 0 .4-1s-.1-.2-.2-.2"/><path id="asalShape-46" data-name="Shape" class="asalcls-1" d="M28.8 14.9c0 .1 0 .1.1.1s.1-.1 0-.1 0-.1-.1 0"/><path id="asalShape-47" data-name="Shape" class="asalcls-1" d="M23.7 11.8c-.1-.2-.2 0-.3 0l-.1-.1h-.1c-.1 0 0 .2.1.2s.1-.1.1 0 0 .3.2.2.2-.1.3-.1.1-.1.1-.2.2-.1.3 0a.1.1 0 0 0 .1.1c0 .1.1.1.2.1a.37.37 0 0 0 .3-.1.19.19 0 0 0 0-.3h-.2c-.1 0-.1-.1-.2-.1-.4-.1-.6.2-.8.3"/><path id="asalShape-48" data-name="Shape" class="asalcls-1" d="M22.7 12h.3c0-.2-.2-.1-.3-.1.1-.1.1 0 0 .1"/><path id="asalShape-49" data-name="Shape" class="asalcls-1" d="M23.1 12.6c.1-.1.3-.2.4-.3v-.1c0-.1-.1-.1-.2-.2a.1.1 0 0 1-.1.1c-.1.1-.2.1-.2.2v.2c.1.3.1.2.1.1"/><path id="asalShape-50" data-name="Shape" class="asalcls-1" d="M21.6 11.6v.1c.1.1.1 0 0-.1"/><path id="asalShape-51" data-name="Shape" class="asalcls-1" d="M18 9.4a.6.6 0 0 0 .4.1l.1-.1c-.1-.1-.2 0-.2-.1h-.1c-.1-.1-.2 0-.2.1"/><path id="asalShape-52" data-name="Shape" class="asalcls-1" d="M27.1 11c0 .1-.1 0-.2.1v.1c.1.1.2 0 .3 0s.1-.1.1 0v.1a.1.1 0 0 0-.1.1h-.3v.2c-.1.1-.4.2-.3.4a.75.75 0 0 0 .5.1c0-.2.1-.2.2-.3a.1.1 0 0 0-.1-.1v-.1a.1.1 0 0 0 .1-.1v-.1a.35.35 0 0 0 .2-.1c0-.1-.1-.2-.1-.3a.1.1 0 0 1 .1-.1v-.1h-.1s-.1 0 0 .1a.37.37 0 0 0-.3.1c0-.2.1 0 0 0"/><path id="asalShape-53" data-name="Shape" class="asalcls-1" d="M26.1 12c0 .1.1.1.2 0h-.2"/><path id="asalShape-54" data-name="Shape" class="asalcls-1" d="M27.5 11.8c-.1.1.1.1.2.1 0-.1-.1-.1-.2-.1"/><path id="asalShape-55" data-name="Shape" class="asalcls-1" d="M27.9 11.3c-.1 0-.1.1 0 0"/><path id="asalShape-56" data-name="Shape" class="asalcls-1" d="M25.6 7.3c.1.1.2.1.2.2v.4l.1.1v.2c0 .1.1.3.1.4a.1.1 0 0 1 .1.1c0 .1 0 .1.1.2s.1 0 .2.1.2.3.3.4a.1.1 0 0 1 .1.1v.1c.2 0 .5.1.4.4.1-.1.2-.1.2-.2s.1-.3 0-.4l-.2-.2V9a.1.1 0 0 0-.1-.1c0-.1-.1-.3.1-.3v-.1H27v-.1a.35.35 0 0 0-.4-.4c-.1-.1-.1-.1-.2-.1h-.2a2.09 2.09 0 0 1-.4-.6.19.19 0 0 0-.3 0c.1-.1.1-.1.1 0"/><path id="asalShape-57" data-name="Shape" class="asalcls-1" d="M24.7 7.6a.14.14 0 0 0 0 .2h.4a.1.1 0 0 0 .1-.1c.1-.1.2 0 .4-.1 0 .1 0 .1.1.1s0-.2-.1-.2-.1-.2-.2-.3h-.1c0 .2-.1.1-.3.2v.1-.1h-.2a.35.35 0 0 1-.1.2"/><path id="asalShape-58" data-name="Shape" class="asalcls-1" d="M22.4 3.7c-.1-.2-.3-.4-.2-.7a1.39 1.39 0 0 0 .9 0c.2-.1.5 0 .7-.1v-.2c-.3.1-.5-.2-.7-.1a3.18 3.18 0 0 1-.9.3c-.2.1-.9 0-.9.4.3 0 .7 0 .9.3 0 .1.1.1.2.1"/><path id="asalShape-59" data-name="Shape" class="asalcls-1" d="M23.4 5.2a.4.4 0 0 0 .4.2c0-.1 0-.1-.1-.2h-.3"/><path id="asalShape-60" data-name="Shape" class="asalcls-1" d="M23.1 5.7c-.1 0 0 .1.1.2 0-.1.1-.3-.1-.2"/><path id="asalShape-61" data-name="Shape" class="asalcls-1" d="M22.9 5.4c.1-.1 0-.2-.1-.2v.1l.1.1"/><path id="asalShape-62" data-name="Shape" class="asalcls-1" d="M23.8 6.5a.31.31 0 0 0 .1-.2h-.1a.14.14 0 0 0 0 .2"/><path id="asalShape-63" data-name="Shape" class="asalcls-1" d="M24.1 6.5v.1c.1.1.1 0 0-.1.1 0 0 .1 0 0"/><path id="asalShape-64" data-name="Shape" class="asalcls-1" d="M24 6.8l.1-.1c0-.1-.1-.1-.2 0s.1 0 .1.1"/><path id="asalShape-65" data-name="Shape" class="asalcls-1" d="M24.1 6.8c0 .1.1.2.2.1s.1-.1 0-.1z"/><path id="asalShape-66" data-name="Shape" class="asalcls-1" d="M24.6 7a.35.35 0 0 0-.1-.2s-.1.1 0 .1 0 .1.1.1"/><path id="asalShape-67" data-name="Shape" class="asalcls-1" d="M24.7 7.3h.1v-.2h-.2v.1l.1.1"/><path id="asalShape-68" data-name="Shape" class="asalcls-1" d="M24.5 7.5c.1-.1.1-.1 0-.2h-.1a.1.1 0 0 1-.1.1c.1.1.1.1.2.1"/><path id="asalShape-69" data-name="Shape" class="asalcls-1" d="M24.2 2.5c-.1-.1-.1-.1-.2-.1.1.1.1.2.2.1"/><path id="asalShape-70" data-name="Shape" class="asalcls-1" d="M27.6 5c.1.1.2 0 .2.1s.1.2.2.2.1 0 .1-.1 0-.4-.2-.4h-.5c-.1 0-.1.1-.1.2a.19.19 0 0 1 .3 0"/><path id="asalShape-71" data-name="Shape" class="asalcls-1" d="M31.7 10.2c-.1-.1-.1-.3-.2-.4s-.2-.1-.3-.2v-.2l-.1-.1c-.1-.2-.1-.3-.3-.3 0-.2-.1-.2-.3-.3v-.1a.1.1 0 0 0-.1-.1h-.1c-.1-.1-.2-.2-.2-.3s-.2-.2-.3-.3l-.1-.1c-.1 0-.2 0-.2-.1s-.2-.3-.3-.4 0-.4-.1-.7c0-.1-.1-.1-.2-.1a.1.1 0 0 1-.1-.1c-.1-.1 0-.3-.1-.4s-.3-.3-.4-.5a.37.37 0 0 0-.3-.1h-.1l-.1-.1c-.1-.1-.2-.2-.3-.2s-.4 0-.6-.1-.4 0-.5.2-.3.2-.5.2 0 .1 0 .2-.2.2-.1.2h.2a.1.1 0 0 1 .1.1c.1.1.2.2.2.3a.14.14 0 0 0 0 .2.37.37 0 0 1 .1.3c0 .1.1 0 .1 0a.25.25 0 0 1 .1.4v.3c.1.2.1.4.2.5l.1-.1c.1 0 .1-.1.2-.1.2-.2.4.2.5.3s0 .4.1.6a1.38 1.38 0 0 0 .3.4.31.31 0 0 0 .1.2l.1.1a.1.1 0 0 1 .1-.1h.1c.2.2.2.6.5.6a.1.1 0 0 0 .1.1c.1 0 .1-.1.2 0a.35.35 0 0 0 .1.2h.3c.1 0 .1.1.2.2l.1.1c.2.2.3.5.5.7s.2.2.3.1v-.1a.22.22 0 0 0 .2-.2l.3-.3c.1-.1.2-.1.3-.2.3 0 .2-.2.2-.2"/><path id="asalShape-72" data-name="Shape" class="asalcls-1" d="M27.5 10.3c0 .1.1.1.2.1s.1.2.2.2.1-.1.1-.2h.1c.1-.1 0-.3-.1-.4s-.1-.2-.3-.2-.1 0-.2.1 0 .2 0 .3v.1"/><path id="asalShape-73" data-name="Shape" class="asalcls-1" d="M28.2 10.7c-.1.2 0 .4 0 .6s-.2.1-.2.2a.14.14 0 0 0 0 .2c0 .1.2.1.3.2a1.17 1.17 0 0 1 .6.6.37.37 0 0 1 .1.3c.1.1.2.1.2.2s.1.1.1 0a.3.3 0 0 0 0-.4c-.1-.1-.1-.1-.1-.2a2.35 2.35 0 0 0-.2-.8l-.3-.3v-.1c0-.1.1-.1.1-.2s-.1-.2-.2-.3c-.2-.1-.3-.1-.4 0"/><path id="asalShape-74" data-name="Shape" class="asalcls-1" d="M29.7 12.1v-.2c0-.2-.2-.2-.3-.2h-.1v.2a2.93 2.93 0 0 1 .3 1c0 .1.3 0 .3-.1v-.2c0-.1-.1-.1-.1-.2s-.1-.2-.1-.3"/><path id="asalShape-75" data-name="Shape" class="asalcls-1" d="M29.3 11.2c-.1.1 0 .2 0 .3.1 0 .1 0 .1-.1s0-.1-.1-.2"/><path id="asalShape-76" data-name="Shape" class="asalcls-1" d="M29.3 11c0-.1 0-.1-.1-.1s-.1.1-.2.1 0 .1.1.2c.2 0 .3-.1.2-.2"/><path id="asalShape-77" data-name="Shape" class="asalcls-1" d="M28.8 10.5c.1.1 0 .2.1.2s.2.1.3 0 0-.1-.1-.1v-.1H29c-.1-.1.1-.1 0-.2v-.1h-.1v.1c-.1.1-.2.2-.1.2"/><path id="asalShape-78" data-name="Shape" class="asalcls-1" d="M28.7 9.9c-.1 0-.2 0-.2-.1h-.1s-.1.1 0 .1a.1.1 0 0 1 .1.1c0 .1.1 0 .1.1s.1.1.1 0V10s.1-.1 0-.1"/><path id="asalShape-79" data-name="Shape" class="asalcls-1" d="M21.6 14.5a.14.14 0 0 0 0-.2.1.1 0 0 0-.1.1c.1 0 .1 0 .1.1"/><path id="asalShape-80" data-name="Shape" class="asalcls-1" d="M29.4 13.2a.6.6 0 0 0-.4.1c-.2.1-.3.4-.4.6a.52.52 0 0 1-.4.2.1.1 0 0 1-.1-.1v-.2l.1-.1c.1-.1 0-.2 0-.3s-.3-.4-.5-.3-.3.3-.5.5c-.1-.1-.2-.2-.2-.3v-.1c.1 0 .2.2.2.1s0-.2-.1-.2-.1-.1-.2-.1-.1-.1-.2-.2 0-.3-.1-.3a.37.37 0 0 1-.3-.1h-.2v-.1c.1 0 .3 0 .2-.2s-.1-.1-.2-.1H26v.3a.37.37 0 0 1-.3.1h-.1c-.1 0-.2-.1-.3-.1s-.1.2-.2.2-.1 0-.2.1-.1.2 0 .3v.1a.1.1 0 0 1-.1-.1c0-.1-.1-.2-.1-.3s.1-.2.2-.3v-.2c-.1-.1-.1-.1-.2-.1s-.3.4-.5.3-.2-.2-.3-.2-.1-.1-.2 0a2.19 2.19 0 0 1-.5.3c-.1.1-.3.2-.3.4a.38.38 0 0 1-.6.1c-.1-.1-.2-.2-.3-.2s-.2.2-.3.2-.1 0-.2-.1v-.1l.6-.3c.1 0 .1-.1.1-.2V12a.68.68 0 0 0-.6.4.1.1 0 0 1-.1.1c-.2 0-.3.1-.5 0l-.1-.2c-.1.1-.1.2-.2.2l-.1.1c-.1.1.1.3 0 .4s-.2.1-.3.1v.2c0 .1.1 0 .1.1s.1.3.2.3.3 0 .5.1.2.1.3.2.1.1.1.2a.1.1 0 0 0 .1.1h.2c.1 0 0 .1.1.2a.76.76 0 0 0 .1.4s0 .2-.1.2a.1.1 0 0 0-.1.1v.3h.1c.1.1.1.2.2.3l.1.1a.1.1 0 0 0-.1.1.14.14 0 0 0 .2 0c.1 0 .1-.1.2-.1a.1.1 0 0 0 .1-.1.35.35 0 0 1 .1.2c-.1.1-.3 0-.4.1s-.1 0-.2.1a.1.1 0 0 0 .1.1c.2.1.1.4-.1.6v.2H22c-.2 0-.5-.1-.7 0s-.1.1-.1.2a.1.1 0 0 0-.1.1v.2c-.2.2-.2.5-.3.7a.1.1 0 0 0 .1.1c.1 0 .1-.1.2-.1s.1.2.1.2.2.1.2 0a.37.37 0 0 1 .1-.3c0-.1-.1-.2-.1-.3s0-.2.1-.2a.1.1 0 0 1 .1.1v.4a.14.14 0 0 1 0 .2.1.1 0 0 1-.1.1v.2c-.1.1-.1.1-.1.2-.2 0-.4-.1-.3-.3-.1 0-.1 0-.2.1v.3c-.1.1-.1.2-.2.3v.1c-.1.1-.2.2-.3.2-.1.1-.2 0-.2.1s.1.2.1.3 0 .1-.1.2h-.4a.37.37 0 0 1-.1.3c-.1.1 0 .2.1.2s.1.2.2.2.1.1.2.1a.22.22 0 0 0 .2-.2c0-.1.1 0 .2 0h.1a.14.14 0 0 0 0-.2l.4-.4c.1 0 .1-.1.2-.1s.1.1.2.1.1.1.2.1h.1c.1 0 .2.2.3.2a.37.37 0 0 0-.1-.3c-.1-.1-.2-.2-.3-.2v-.1c.1.1.1.1.2.1s.1.2.2.3.1.1.2.1a.37.37 0 0 0 .3-.1c0-.1 0-.1-.1-.1s0-.1.1-.2 0-.2 0-.3v-.1c.1-.1 0-.2 0-.4 0 .1.1.1.2.1a.22.22 0 0 0 .2-.2.19.19 0 0 1 .3.1c0 .1 0 .2-.1.2a.76.76 0 0 0-.5.2l-.1.1c-.1.1-.1.1-.1.2l-.1.1a.1.1 0 0 1 .1.1.37.37 0 0 0 .3-.1v-.2c.1 0 .1-.1.2-.1s.3.2.2.3h-.1c-.1.1-.2.3-.3.3s-.5.1-.7.2-.1.2-.2.2-.2.1-.3 0c0 .1-.2 0-.3 0a.31.31 0 0 0-.1-.2h-.1v-.1h-.8a.1.1 0 0 0-.1.1l-.1.1a.37.37 0 0 1-.3.1.37.37 0 0 0-.3.1c-.2 0-.3.2-.4.3a.37.37 0 0 1-.3.1v.1c-.2 0-.3.3-.4.5v.2c-.1.1-.1.3-.3.4v.1c.1.2.3.3.5.5a.1.1 0 0 0 .1.1c.1.1.1.2.2.4s.3.2.5.2a.35.35 0 0 1 .2.1c.2 0 .5.1.7 0 .3.1.7 0 1 .1.1 0 .1.1.1.2s.2.3.3.4a.6.6 0 0 0 .4.1.31.31 0 0 0 .1.2c0 .1 0 .1.1.2s.1.1.1.2-.1.2-.1.4v.2a2.65 2.65 0 0 0 .6.5s.1 0 0 .1c.1 0 .1.1.2.2s0 .1.1.2l.3.3a.6.6 0 0 0 .4.1.1.1 0 0 1 .1.1c.1 0 .3.1.4 0s.1-.2.2-.2a.6.6 0 0 1 .4-.1.1.1 0 0 0 .1-.1c0-.1.1-.1.1-.2s.2-.1.3-.1.3-.3.5-.4.4-.1.5-.2 0-.4 0-.6.1-.2.1-.3v-.5c0-.1-.1-.2-.1-.3s.1-.1.2-.1.1-.3.2-.4a.1.1 0 0 0 .1-.1c.1 0 0-.1 0-.2a.1.1 0 0 1-.1-.1 1.21 1.21 0 0 0-.5-.5.1.1 0 0 1-.1-.1v-.1c-.1 0 0-.1-.1-.1h.1c.1-.1.1-.3.2-.4a.1.1 0 0 0 .1-.1v-.3c-.1-.1 0-.3 0-.4a2.2 2.2 0 0 0-.1-.8c0-.1-.1-.1-.2-.1a.1.1 0 0 1-.1.1.31.31 0 0 1-.1.2c0 .1-.2.1-.2.2s0 .1-.1.2l-.1.1c.4-.3.3-.3.3-.2h-.3a14.24 14.24 0 0 0-1.6-.5h.3c.1 0 0-.1 0-.1s.2.1.3.2.5.1.7.2.3.2.5.2.3-.1.4-.1v-.1c.1-.1.2-.2.2-.3v-.3l.1-.1v-.4a.1.1 0 0 0 .1-.1v-.3a.75.75 0 0 0-.1-.5c0-.1-.1-.1-.2-.1a.1.1 0 0 1-.1.1c-.1 0-.2 0-.2.1a.1.1 0 0 0-.1.1.52.52 0 0 1-.4.2c-.1 0-.2 0-.2-.1s.2-.2.4-.2l.1-.1a.22.22 0 0 1 .2-.2h.2c.1 0 .1-.1.2-.1a.31.31 0 0 1 .1-.2c0-.1.1-.1.2-.2s.1-.4.2-.6 0 .1.1.2a.19.19 0 0 0 .3 0c.1-.1 0-.2.1-.2h.1c.1 0 .1.1.2.1a.35.35 0 0 1 .2-.1h.3c.2-.1.6 0 .6-.2a.86.86 0 0 0-.6-.7c-.2-.1-.1-.4-.3-.6-.1 0 0-.1-.1-.2l-.1-.1-.1-.1v-.5c0-.1.1-.1.2-.1s.2-.1.2-.2v-.4l.1-.1c.2 0 .5.1.7-.1.1 0 .1-.1.1-.2a1 1 0 0 0 .4-.8c-.1.1 0 .1 0-.1.1.1.1 0 0 0m-4.5 5.4c-.1.1-.1.1-.2 0s-.1-.1-.1-.2-.1 0-.1.1h-.2c0-.1-.1-.1-.1-.2s0-.2.1-.2.1 0 .1.1v.1c.1.1.1 0 .2 0h.3c0 .1.1.2 0 .3"/><path id="asalShape-81" data-name="Shape" class="asalcls-1" d="M15.6 36c1.3-1.9 5.2-3.9 9-3.9s8 2.2 9.6 1a8.38 8.38 0 0 1-5.1 1.4c-3.4 0-4.7-1.7-7-1.7s-4.8 1.9-5.9 3.5z"/><path id="asalShape-82" data-name="Shape" class="asalcls-1" d="M27.7 31.8a5.34 5.34 0 0 0 1.7-1.9 14.44 14.44 0 0 1 3.7-4.4s-1.7 5.5-3.5 5.7c0 0-.3.2.2.1s2.8-.9 3.6-1.1a8.58 8.58 0 0 0 3.3-1.1 1.48 1.48 0 0 1 .8-.4s-2.2 3.7-6.2 3.7a17.1 17.1 0 0 1-3.6-.6"/><path id="asalShape-83" data-name="Shape" class="asalcls-1" d="M32.4 29.9a3.92 3.92 0 0 0 .5-1.7 14.64 14.64 0 0 1 2.7-6.3s.3 4.3-1.9 7c0 0-.1.4.1.1a22.93 22.93 0 0 1 4.6-3.9s1.5-1.3 1.6-1.7c0-.1-1.2 6.1-7.6 6.5"/><path id="asalShape-84" data-name="Shape" class="asalcls-1" d="M36.1 25.8a5.62 5.62 0 0 0 .2-1.3c0-.6-.3-2.6-.3-3.5a7.53 7.53 0 0 1 .8-3.7 4.5 4.5 0 0 0 .2 1.4 12.29 12.29 0 0 1 .5 2.5 10.27 10.27 0 0 1-.4 2.5 2.13 2.13 0 0 0 .6-.8 12.81 12.81 0 0 1 2.2-2.8 5.62 5.62 0 0 0 1.4-2.1 6.08 6.08 0 0 1-1.2 4.1c-1.5 2.1-2.1 1.8-2.9 2.6a11.41 11.41 0 0 1-1.1 1.1"/><path id="asalShape-85" data-name="Shape" class="asalcls-1" d="M38.4 20.9a3.87 3.87 0 0 0-.3-1.6 10.5 10.5 0 0 1-1.3-5.9s.2-.2.6 1 1 1.6 1.2 2.8a12 12 0 0 1 .2 1.7s.1.2.1 0a9 9 0 0 1 .8-3.2c.7-1.5 1.6-2.9 1.5-3.9 0 0 .4 0 .3 1.6.1 1.6-.3 4.4-3.1 7.5"/><path id="asalShape-86" data-name="Shape" class="asalcls-1" d="M39.2 16.1a12 12 0 0 0-.8-1.5c-.3-.4-2.7-3.7-2.9-5.3 0 0 .2-.1.4.3a12.94 12.94 0 0 0 1.5 1.7 5 5 0 0 1 1.5 2.8s.1.1-.1-2.1.7-3.7-.1-5.3c0 0 1.1.2 1.7 4.8a9.68 9.68 0 0 1-.9 3.6c.1-.1-.2 1-.3 1"/><path id="asalShape-87" data-name="Shape" class="asalcls-1" d="M38.3 11a9.94 9.94 0 0 0-1.6-1.3 9.58 9.58 0 0 1-3.3-4.3s.1-.2.8.7c.5.7 1.1.4 2.7 2.4 0 0 .2.5.3.4s-.1-.5-.1-.5-.1-1.2-.1-1.6a15.83 15.83 0 0 0-.9-3.1 5.82 5.82 0 0 1 2.5 4.7c-.1 0-.2 2.5-.3 2.6"/><path id="asalShape-88" data-name="Shape" class="asalcls-1" d="M36.5 7.3s.1-3-3.8-4.6c0 0 1.4 2.8 2.4 3.5a11.57 11.57 0 0 1 1.4 1.1"/><path id="asalShape-89" data-name="Shape" class="asalcls-1" d="M26.3 36c-1.3-1.9-5.2-3.9-9-3.9s-8 2.2-9.6 1a8.38 8.38 0 0 0 5.1 1.4c3.4 0 4.7-1.7 7-1.7s4.8 1.9 5.9 3.5z"/><path id="asalShape-90" data-name="Shape" class="asalcls-1" d="M14.2 31.8a5.34 5.34 0 0 1-1.7-1.9 14.44 14.44 0 0 0-3.7-4.4s1.7 5.5 3.5 5.7c0 0 .3.2-.2.1s-2.8-.9-3.6-1.1a8.58 8.58 0 0 1-3.3-1.1 1.24 1.24 0 0 0-.8-.4s2.2 3.7 6.2 3.7a17.1 17.1 0 0 0 3.6-.6"/><path id="asalShape-91" data-name="Shape" class="asalcls-1" d="M9.5 29.9a3.92 3.92 0 0 1-.5-1.7 14.64 14.64 0 0 0-2.7-6.3s-.3 4.3 1.9 7c0 0 .1.4-.1.1a22.93 22.93 0 0 0-4.6-3.9S2 23.8 1.9 23.4c0-.1 1.2 6.1 7.6 6.5"/><path id="asalShape-92" data-name="Shape" class="asalcls-1" d="M5.8 25.8a5.62 5.62 0 0 1-.2-1.3c0-.6.3-2.6.3-3.5a7.53 7.53 0 0 0-.8-3.7 4.5 4.5 0 0 1-.2 1.4 12.29 12.29 0 0 0-.5 2.5 10.27 10.27 0 0 0 .4 2.5 2.13 2.13 0 0 1-.6-.8A12.81 12.81 0 0 0 2 20.1 5.62 5.62 0 0 1 .6 18a6.08 6.08 0 0 0 1.2 4.1c1.5 2.1 2.1 1.8 2.9 2.6.1 0 1 1.1 1.1 1.1"/><path id="asalShape-93" data-name="Shape" class="asalcls-1" d="M3.5 20.9a6.93 6.93 0 0 1 .3-1.6 10.5 10.5 0 0 0 1.3-5.9s-.2-.2-.6 1-1 1.6-1.2 2.8a8.18 8.18 0 0 0-.3 1.7s-.1.2-.1 0a9 9 0 0 0-.8-3.2C1.4 14.2.5 12.8.6 11.8c0 0-.4 0-.3 1.6a11 11 0 0 0 3.2 7.5"/><path id="asalShape-94" data-name="Shape" class="asalcls-1" d="M2.7 16.1a12 12 0 0 1 .8-1.5c.3-.4 2.7-3.7 2.9-5.3 0 0-.2-.1-.4.3a12.94 12.94 0 0 1-1.5 1.7A5 5 0 0 0 3 14.1s-.1.1.1-2.1-.7-3.7.1-5.3c0 0-1.1.2-1.7 4.8a9.68 9.68 0 0 0 .9 3.6c-.1-.1.2 1 .3 1"/><path id="asalShape-95" data-name="Shape" class="asalcls-1" d="M3.6 11a9.94 9.94 0 0 1 1.6-1.3 9.58 9.58 0 0 0 3.3-4.3s-.1-.2-.8.7c-.5.7-1.1.4-2.7 2.4 0 0-.2.5-.3.4s.1-.5.1-.5a13.88 13.88 0 0 0 .3-1.7A15.83 15.83 0 0 1 6 3.6a5.82 5.82 0 0 0-2.5 4.7 12.21 12.21 0 0 0 .1 2.7"/><path id="asalShape-96" data-name="Shape" class="asalcls-1" d="M5.4 7.3s-.1-3 3.8-4.6c0 0-1.4 2.8-2.4 3.5a11.57 11.57 0 0 0-1.4 1.1"/></g></g></g></g></symbol><symbol viewBox="0 0 48 48" id="ascd-icon--search" xmlns="http://www.w3.org/2000/svg"><path d="M46.829 41.172L38.4 32.744a21.018 21.018 0 1 0-5.657 5.657l8.427 8.427a4 4 0 0 0 5.658-5.656zM8 21a13 13 0 1 1 22.325 9.046c-.05.045-.106.078-.154.126s-.08.104-.125.154A12.992 12.992 0 0 1 8 21z"/></symbol><symbol viewBox="0 0 48 48" id="ascd-icon--selected" xmlns="http://www.w3.org/2000/svg"><path d="M18.5 39.75a4 4 0 0 1-2.83-1.17l-12.5-12.5a4 4 0 0 1 5.66-5.66l9.67 9.67L39.17 9.42a4 4 0 0 1 5.66 5.66l-23.5 23.5a4 4 0 0 1-2.83 1.17z"/></symbol><symbol viewBox="0 0 48 48" id="ascd-icon--selected--highlighted" xmlns="http://www.w3.org/2000/svg"><path fill="#80CBFF" d="M18.5 39.75a4 4 0 0 1-2.83-1.17l-12.5-12.5a4 4 0 0 1 5.66-5.66l9.67 9.67L39.17 9.42a4 4 0 0 1 5.66 5.66l-23.5 23.5a4 4 0 0 1-2.83 1.17z"/></symbol><symbol viewBox="0 0 48 48" id="ascd-icon--sm-fb-def" xmlns="http://www.w3.org/2000/svg"><path d="M24 5A19 19 0 1 1 5 24 19 19 0 0 1 24 5m0-3a22 22 0 1 0 22 22A22 22 0 0 0 24 2z"/><path d="M29.16 13h-3.52c-2.09 0-4.41.88-4.41 3.9v3.2h-2.41v3.84h2.49V35h4.57V23.87h3l.27-3.78h-3.34v-2.17c0-1.2 1.24-1.13 1.32-1.13h2V13z"/></symbol><symbol viewBox="0 0 48 48" id="ascd-icon--sm-fb-full" xmlns="http://www.w3.org/2000/svg"><path d="M24 2a22 22 0 1 0 22 22A22 22 0 0 0 24 2zm4.9 21.87h-3V35h-4.59V23.94h-2.49V20.1h2.41v-3.2c0-3 2.32-3.9 4.41-3.9h3.52v3.79h-2c-.07 0-1.32-.07-1.32 1.13v2.17h3.37z"/></symbol><symbol viewBox="0 0 48 48" id="ascd-icon--sm-gh-def" xmlns="http://www.w3.org/2000/svg"><path d="M14.46 26.8a.16.16 0 0 1 0-.26.71.71 0 0 1 .66-.2 1.15 1.15 0 0 1 .46.13 3 3 0 0 1 1 .89 6.7 6.7 0 0 0 .89 1 2.45 2.45 0 0 0 3.23.2 2 2 0 0 1 .43-.79 2 2 0 0 1 .56-.46q.26-.13.92-.39a12.25 12.25 0 0 1-3.52-.76A6 6 0 0 1 17 24.69a5.52 5.52 0 0 1-1.28-3.09 7.92 7.92 0 0 1 .3-3.49 5.8 5.8 0 0 1 1.12-1.78 5.89 5.89 0 0 1 .2-3.75A6.84 6.84 0 0 1 21.1 14a14.42 14.42 0 0 1 6.85 0 12.37 12.37 0 0 1 1.42-.82 5.79 5.79 0 0 1 2.4-.56 7.1 7.1 0 0 1 .36 1.71 5.66 5.66 0 0 1-.1 1.84 6.07 6.07 0 0 1 1.58 4.21 7.48 7.48 0 0 1-.72 3.49 5.56 5.56 0 0 1-2.57 2.3 9.15 9.15 0 0 1-3.29.72 4.36 4.36 0 0 1 1.35 1 2.9 2.9 0 0 1 .56 1.55v2.07l.07 2a2.47 2.47 0 0 0 .92.89.22.22 0 0 1 .13.3q-.07.2-.53.2a2.19 2.19 0 0 1-1.78-.9 1.51 1.51 0 0 1-.2-.79v-3.12a1 1 0 0 0-.26-.76 1.28 1.28 0 0 0-.53-.3v4.15a2.6 2.6 0 0 0 .24 1.45 1.55 1.55 0 0 1 .33.66s0 .08-.1.1a1.27 1.27 0 0 1-.56-.1 1.63 1.63 0 0 1-1.18-.89 3.4 3.4 0 0 1-.33-1.48v-4.08h-.86v4.08a3.62 3.62 0 0 1-.3 1.51 1.85 1.85 0 0 1-1.71 1q-.2-.07-.2-.13a5.58 5.58 0 0 0 .39-.66 3.05 3.05 0 0 0 .16-.53 3.82 3.82 0 0 0 .1-.92V29a1.07 1.07 0 0 0-.49.3 1 1 0 0 0-.23.76v3.16a1.51 1.51 0 0 1-.2.79 2.08 2.08 0 0 1-1.78.79q-.46 0-.53-.2a.18.18 0 0 1 0-.23 2 2 0 0 1 .3-.23 2 2 0 0 0 .26-.2 1.2 1.2 0 0 0 .39-.53 2.5 2.5 0 0 0 .1-1.38 6.64 6.64 0 0 1 0-1.45 3.8 3.8 0 0 1-3.47-.58A6.43 6.43 0 0 1 16 28.51a6.64 6.64 0 0 0-1.58-1.71z"/><path d="M24 5A19 19 0 1 1 5 24 19 19 0 0 1 24 5m0-3a22 22 0 1 0 22 22A22 22 0 0 0 24 2z"/></symbol><symbol viewBox="0 0 48 48" id="ascd-icon--sm-gh-full" xmlns="http://www.w3.org/2000/svg"><path d="M24 2a22 22 0 1 0 22 22A22 22 0 0 0 24 2zm8.89 21.84a5.56 5.56 0 0 1-2.57 2.3 9.15 9.15 0 0 1-3.29.72 4.36 4.36 0 0 1 1.35 1 2.9 2.9 0 0 1 .56 1.55v2.07l.07 2a2.47 2.47 0 0 0 .92.89.22.22 0 0 1 .13.3q-.07.2-.53.2a2.19 2.19 0 0 1-1.78-.87 1.51 1.51 0 0 1-.2-.79v-3.12a1 1 0 0 0-.26-.76 1.28 1.28 0 0 0-.53-.3v4.15a2.6 2.6 0 0 0 .24 1.45 1.55 1.55 0 0 1 .33.66s0 .08-.1.1a1.27 1.27 0 0 1-.56-.1 1.63 1.63 0 0 1-1.18-.89 3.4 3.4 0 0 1-.33-1.48v-4.08h-.86v4.08a3.62 3.62 0 0 1-.3 1.51 1.85 1.85 0 0 1-1.71 1q-.2-.07-.2-.13a5.56 5.56 0 0 0 .39-.66 3 3 0 0 0 .16-.53 3.82 3.82 0 0 0 .1-.92V29a1.07 1.07 0 0 0-.49.3 1 1 0 0 0-.23.76v3.16a1.51 1.51 0 0 1-.2.79 2.08 2.08 0 0 1-1.78.79q-.46 0-.53-.2a.18.18 0 0 1 0-.23 2 2 0 0 1 .3-.23 2 2 0 0 0 .26-.2 1.2 1.2 0 0 0 .39-.53 2.5 2.5 0 0 0 .1-1.38 6.64 6.64 0 0 1 0-1.45 3.8 3.8 0 0 1-3.47-.58A6.43 6.43 0 0 1 16 28.51a6.64 6.64 0 0 0-1.58-1.71.16.16 0 0 1 0-.26.71.71 0 0 1 .66-.2 1.14 1.14 0 0 1 .46.13 3 3 0 0 1 1 .89 6.69 6.69 0 0 0 .89 1 2.45 2.45 0 0 0 3.23.2 2.12 2.12 0 0 1 1-1.25q.26-.13.92-.4a12.25 12.25 0 0 1-3.52-.76A6 6 0 0 1 17 24.69a5.52 5.52 0 0 1-1.28-3.09 7.92 7.92 0 0 1 .3-3.49 5.79 5.79 0 0 1 1.12-1.78 5.89 5.89 0 0 1 .2-3.75A6.83 6.83 0 0 1 21.1 14a14.42 14.42 0 0 1 6.85 0 12.37 12.37 0 0 1 1.42-.82 5.79 5.79 0 0 1 2.4-.56 7.1 7.1 0 0 1 .36 1.71 5.66 5.66 0 0 1-.1 1.84 6.06 6.06 0 0 1 1.58 4.21 7.48 7.48 0 0 1-.72 3.46z"/></symbol><symbol viewBox="0 0 48 48" id="ascd-icon--sm-ig-def" xmlns="http://www.w3.org/2000/svg"><path d="M24 2a22 22 0 1 0 22 22A22 22 0 0 0 24 2zm0 41a19 19 0 1 1 19-19 19 19 0 0 1-19 19z"/><path d="M24 18.09A5.91 5.91 0 1 0 29.91 24 5.9 5.9 0 0 0 24 18.09zm0 9.74A3.83 3.83 0 1 1 27.83 24 3.83 3.83 0 0 1 24 27.83z"/><circle cx="30.14" cy="17.86" r="1.38"/><path d="M34.9 16.47a5.88 5.88 0 0 0-3.36-3.36 8.43 8.43 0 0 0-2.79-.53c-1.23-.06-1.62-.07-4.74-.07s-3.52 0-4.74.07a8.44 8.44 0 0 0-2.79.53 5.88 5.88 0 0 0-3.36 3.36 8.44 8.44 0 0 0-.53 2.79c-.06 1.23-.07 1.62-.07 4.74s0 3.52.07 4.74a8.44 8.44 0 0 0 .53 2.79 5.88 5.88 0 0 0 3.36 3.36 8.44 8.44 0 0 0 2.79.53c1.23.06 1.62.07 4.74.07s3.52 0 4.74-.07a8.44 8.44 0 0 0 2.79-.53 5.88 5.88 0 0 0 3.36-3.36 8.41 8.41 0 0 0 .53-2.79c.06-1.23.07-1.62.07-4.74s0-3.52-.07-4.74a8.44 8.44 0 0 0-.53-2.79zm-1.54 12.18a6.38 6.38 0 0 1-.4 2.14A3.81 3.81 0 0 1 30.78 33a6.35 6.35 0 0 1-2.14.4c-1.21.06-1.58.07-4.65.07s-3.43 0-4.65-.07a6.35 6.35 0 0 1-2.14-.4 3.81 3.81 0 0 1-2.2-2.22 6.35 6.35 0 0 1-.4-2.14c-.06-1.21-.07-1.58-.07-4.65s0-3.43.07-4.65a6.38 6.38 0 0 1 .4-2.14 3.81 3.81 0 0 1 2.22-2.2 6.35 6.35 0 0 1 2.14-.4c1.21-.06 1.58-.07 4.65-.07s3.43 0 4.65.07a6.38 6.38 0 0 1 2.14.4 3.81 3.81 0 0 1 2.2 2.22 6.35 6.35 0 0 1 .4 2.14c.06 1.21.07 1.58.07 4.65s-.05 3.42-.11 4.64z"/></symbol><symbol viewBox="0 0 48 48" id="ascd-icon--sm-ig-full" xmlns="http://www.w3.org/2000/svg"><circle cx="24" cy="24" r="3.83"/><path d="M33 17.22A3.81 3.81 0 0 0 30.78 15a6.38 6.38 0 0 0-2.14-.4c-1.21-.05-1.58-.07-4.65-.07s-3.43 0-4.65.07a6.35 6.35 0 0 0-2.14.4 3.81 3.81 0 0 0-2.2 2.22 6.38 6.38 0 0 0-.4 2.14c-.05 1.21-.07 1.58-.07 4.65s0 3.44.07 4.65a6.36 6.36 0 0 0 .4 2.14 3.81 3.81 0 0 0 2.22 2.2 6.35 6.35 0 0 0 2.14.4c1.21.06 1.58.07 4.65.07s3.44 0 4.65-.07a6.35 6.35 0 0 0 2.14-.4 3.81 3.81 0 0 0 2.2-2.22 6.38 6.38 0 0 0 .4-2.14c.06-1.21.07-1.58.07-4.65s0-3.43-.07-4.65a6.35 6.35 0 0 0-.4-2.12zm-9 12.69A5.91 5.91 0 1 1 29.91 24 5.9 5.9 0 0 1 24 29.91zm6.14-10.66a1.38 1.38 0 1 1 1.38-1.38 1.38 1.38 0 0 1-1.38 1.37z"/><path d="M24 2a22 22 0 1 0 22 22A22 22 0 0 0 24 2zm11.43 26.74a8.41 8.41 0 0 1-.53 2.79 5.88 5.88 0 0 1-3.36 3.36 8.44 8.44 0 0 1-2.79.53c-1.23.06-1.62.07-4.74.07s-3.51 0-4.74-.07a8.44 8.44 0 0 1-2.79-.53 5.88 5.88 0 0 1-3.36-3.36 8.44 8.44 0 0 1-.53-2.79c-.06-1.23-.07-1.62-.07-4.74s0-3.52.07-4.74a8.44 8.44 0 0 1 .53-2.79 5.88 5.88 0 0 1 3.36-3.36 8.44 8.44 0 0 1 2.79-.53c1.23-.06 1.62-.07 4.74-.07s3.51 0 4.74.07a8.43 8.43 0 0 1 2.79.53 5.88 5.88 0 0 1 3.36 3.36 8.44 8.44 0 0 1 .53 2.79c.06 1.23.07 1.62.07 4.74s-.01 3.51-.07 4.74z"/></symbol><symbol viewBox="0 0 48 48" id="ascd-icon--sm-ln-def" xmlns="http://www.w3.org/2000/svg"><path d="M24 5A19 19 0 1 1 5 24 19 19 0 0 1 24 5m0-3a22 22 0 1 0 22 22A22 22 0 0 0 24 2z"/><ellipse cx="16.07" cy="14.58" rx="2.56" ry="2.58"/><path d="M13.92 19h4.33v14h-4.33zm15.48-.43a4.88 4.88 0 0 0-4.22 2.31V19H21v14h4.16v-7.35c0-2 .91-3.14 2.64-3.14s2.36 1.13 2.36 3.14V33h4.31v-8.86c.02-3.75-2.1-5.57-5.07-5.57z"/></symbol><symbol viewBox="0 0 48 48" id="ascd-icon--sm-ln-full" xmlns="http://www.w3.org/2000/svg"><path d="M24 2a22 22 0 1 0 22 22A22 22 0 0 0 24 2zm-5.74 31h-4.34V19h4.33zm-2.19-15.83a2.58 2.58 0 1 1 2.56-2.58 2.57 2.57 0 0 1-2.56 2.58zM34.49 33h-4.31v-7.35c0-2-.77-3.14-2.36-3.14s-2.64 1.17-2.64 3.14V33H21V19h4.16v1.89a4.88 4.88 0 0 1 4.22-2.31c3 0 5.09 1.81 5.09 5.56z"/></symbol><symbol viewBox="0 0 48 48" id="ascd-icon--sm-rss-def" xmlns="http://www.w3.org/2000/svg"><path d="M24 5A19 19 0 1 1 5 24 19 19 0 0 1 24 5m0-3a22 22 0 1 0 22 22A22 22 0 0 0 24 2z"/><path d="M20.7 31.18a2.85 2.85 0 1 1-2.85-2.81 2.84 2.84 0 0 1 2.85 2.81zM37 34a22 22 0 0 0-22-22v5a17.49 17.49 0 0 1 14.92 8.2 16.65 16.65 0 0 1 2.49 8.8H37zm-7.78 0A14 14 0 0 0 24 23.13 14.27 14.27 0 0 0 15 20v4.2a9.94 9.94 0 0 1 8.67 5 9.79 9.79 0 0 1 1.25 4.8h4.3z"/></symbol><symbol viewBox="0 0 48 48" id="ascd-icon--sm-rss-full" xmlns="http://www.w3.org/2000/svg"><path d="M24 2a22 22 0 1 0 22 22A22 22 0 0 0 24 2zm-6.15 32a2.81 2.81 0 1 1 2.85-2.81A2.84 2.84 0 0 1 17.85 34zm11.37 0h-4.3a9.79 9.79 0 0 0-1.25-4.78 9.94 9.94 0 0 0-8.67-5V20a14.27 14.27 0 0 1 9 3.15A14 14 0 0 1 29.22 34zM37 34h-4.59a16.65 16.65 0 0 0-2.49-8.72A17.49 17.49 0 0 0 15 17.06V12a22 22 0 0 1 22 22z"/></symbol><symbol viewBox="0 0 48 48" id="ascd-icon--sm-tt-def" xmlns="http://www.w3.org/2000/svg"><path d="M24 5A19 19 0 1 1 5 24 19 19 0 0 1 24 5m0-3a22 22 0 1 0 22 22A22 22 0 0 0 24 2z"/><path d="M36 16.56a9.83 9.83 0 0 1-2.83.78 4.94 4.94 0 0 0 2.16-2.72 9.84 9.84 0 0 1-3.13 1.19 4.93 4.93 0 0 0-8.52 3.37 5 5 0 0 0 .13 1.12 14 14 0 0 1-10.15-5.14 4.93 4.93 0 0 0 1.52 6.57 4.9 4.9 0 0 1-2.18-.62v.06A4.93 4.93 0 0 0 16.91 26a4.9 4.9 0 0 1-1.3.17 5 5 0 0 1-.93-.09 4.93 4.93 0 0 0 4.6 3.42 9.91 9.91 0 0 1-7.29 2 14 14 0 0 0 21.57-11.76v-.64A10 10 0 0 0 36 16.56z"/></symbol><symbol viewBox="0 0 48 48" id="ascd-icon--sm-tt-full" xmlns="http://www.w3.org/2000/svg"><path d="M24 2a22 22 0 1 0 22 22A22 22 0 0 0 24 2zm9.54 17.11v.64A14 14 0 0 1 12 31.54a9.92 9.92 0 0 0 7.29-2 4.93 4.93 0 0 1-4.6-3.42 5 5 0 0 0 .93.09 4.9 4.9 0 0 0 1.3-.17A4.93 4.93 0 0 1 13 21.17v-.06a4.9 4.9 0 0 0 2.23.62 4.93 4.93 0 0 1-1.52-6.57 14 14 0 0 0 10.15 5.14 5 5 0 0 1-.13-1.12 4.93 4.93 0 0 1 8.52-3.37 9.83 9.83 0 0 0 3.13-1.19 4.94 4.94 0 0 1-2.16 2.72 9.83 9.83 0 0 0 2.78-.78 10 10 0 0 1-2.46 2.55z"/></symbol><symbol viewBox="0 0 48 48" id="ascd-icon--sm-yt-def" xmlns="http://www.w3.org/2000/svg"><path d="M32.58 16.83c-1.72-.45-8.59-.45-8.59-.45s-6.75 0-8.46.42a3 3 0 0 0-2.11 2A26.77 26.77 0 0 0 13 24a26.77 26.77 0 0 0 .42 5.24 3 3 0 0 0 2.11 2c1.72.46 8.46.42 8.46.42s6.75 0 8.46-.42a3 3 0 0 0 2.08-2A27.91 27.91 0 0 0 35 24a28.42 28.42 0 0 0-.47-5.24 2.74 2.74 0 0 0-1.95-1.93zM21.26 27.38v-6.76L26.74 24z"/><path d="M24 2a22 22 0 1 0 22 22A22 22 0 0 0 24 2zm0 41a19 19 0 1 1 19-19 19 19 0 0 1-19 19z"/></symbol><symbol viewBox="0 0 48 48" id="ascd-icon--sm-yt-full" xmlns="http://www.w3.org/2000/svg"><path d="M24 2a22 22 0 1 0 22 22A22 22 0 0 0 24 2zm10.54 27.24a3 3 0 0 1-2.08 2c-1.72.45-8.46.42-8.46.42s-6.75 0-8.46-.42a3 3 0 0 1-2.11-2A26.77 26.77 0 0 1 13 24a26.77 26.77 0 0 1 .42-5.24 3 3 0 0 1 2.11-2c1.72-.45 8.46-.42 8.46-.42s6.87 0 8.59.45a2.74 2.74 0 0 1 1.94 1.93A28.42 28.42 0 0 1 35 24a27.91 27.91 0 0 1-.46 5.24z"/><path d="M21.25 27.38l5.5-3.38-5.5-3.38v6.76z"/></symbol><symbol viewBox="0 0 48 48" id="ascd-icon--user" xmlns="http://www.w3.org/2000/svg"><path d="M23 24h2a16 16 0 0 1 16 16v4H7v-4a16 16 0 0 1 16-16z"/><rect x="15" y="4" width="18" height="18" rx="9" ry="9"/></symbol><symbol viewBox="0 0 48 48" id="ascd-icon--user--white" xmlns="http://www.w3.org/2000/svg"><path fill="#fff" d="M23 24h2a16 16 0 0 1 16 16v4H7v-4a16 16 0 0 1 16-16z"/><rect fill="#fff" x="15" y="4" width="18" height="18" rx="9" ry="9"/></symbol></symbol><symbol viewBox="0 0 48 48" id="cd-icon--chat" xmlns="http://www.w3.org/2000/svg"><path d="M41 4H27a7 7 0 0 0-7 7v3a9 9 0 0 1 9 9v5h6l4.8 4.8a.7.7 0 0 0 1.2-.5V28a7 7 0 0 0 7-7V11a7 7 0 0 0-7-7z"/><path d="M20 39h-8l-4.81 4.8A.7.7 0 0 1 6 43.3V39a6 6 0 0 1-6-6V23a6 6 0 0 1 6-6h14a6 6 0 0 1 6 6v10a6 6 0 0 1-6 6z"/></symbol><symbol viewBox="0 0 48 48" id="cd-icon--contact" xmlns="http://www.w3.org/2000/svg"><path d="M46 9H2a2 2 0 0 0-2 2v26a2 2 0 0 0 2 2h44a2 2 0 0 0 2-2V11a2 2 0 0 0-2-2zM13 29.14l-7 6a1.5 1.5 0 0 1-2-2.28l7-6a1.5 1.5 0 0 1 2 2.28zM44.14 35a1.5 1.5 0 0 1-2.12.16l-7-6a1.5 1.5 0 0 1 2-2.28l7 6a1.5 1.5 0 0 1 .12 2.12zm-.25-19.77l-17.81 13.1a3.49 3.49 0 0 1-4.15 0L4.11 15.21a1.5 1.5 0 1 1 1.78-2.42L23.7 25.92a.5.5 0 0 0 .59 0l17.82-13.13a1.5 1.5 0 1 1 1.78 2.42z"/></symbol><symbol viewBox="0 0 48 48" id="cd-icon--copy" xmlns="http://www.w3.org/2000/svg"><path d="M13 12a4 4 0 0 1 4-4h15V3a1 1 0 0 0-1-1H8a1 1 0 0 0-1 1v33a1 1 0 0 0 1 1h5zM34.78 39a.78.78 0 0 0-.78.78V46l7-7h-6.22z"/><path d="M40 11H17a1 1 0 0 0-1 1v33a1 1 0 0 0 1 1h15v-6.22A2.78 2.78 0 0 1 34.78 37H41V12a1 1 0 0 0-1-1zm-4 20H21a1 1 0 0 1 0-2h15a1 1 0 0 1 0 2zm0-6H21a1 1 0 0 1 0-2h15a1 1 0 0 1 0 2zm0-6H21a1 1 0 0 1 0-2h15a1 1 0 0 1 0 2z"/></symbol><symbol viewBox="0 0 32 32" id="cd-icon--creative-commons" xmlns="http://www.w3.org/2000/svg"><path fill="#fff" d="M15.886 28.968c-7.159.009-12.857-5.804-12.884-12.802C2.975 9.069 8.849 3.104 15.904 3.285c6.356-.152 12.793 4.975 12.829 12.839.035 7.721-6.201 12.836-12.847 12.844zM15.907.254C6.554.198.034 8.091 0 16.082-.036 24.585 6.961 32.009 15.827 32c8.53-.009 15.954-6.753 15.885-15.803.111-8.79-6.935-15.89-15.805-15.943z"/><path fill="#fff" d="M25.263 18.406c-.958 1.921-3.394 2.767-5.132 2.632-4.489-.347-5.501-3.918-4.747-6.567.701-2.462 3.115-3.831 6.002-3.466 1.667.21 2.961.886 3.863 2.334l-2.382 1.157c-.165-.166-.288-.268-.381-.388-.535-.7-1.25-.982-2.19-.822-.93.158-1.479.714-1.589 1.482a8.264 8.264 0 0 0 .039 2.482c.126.777.707 1.336 1.62 1.462.99.137 1.856-.059 2.38-.931.065-.108.161-.201.309-.382l2.208 1.007z"/><path fill="#fff" d="M16.842 13.347l-2.391 1.138c-.156-.15-.304-.262-.412-.4-.545-.698-1.269-.964-2.203-.797-.888.159-1.44.687-1.541 1.432a8.907 8.907 0 0 0 .03 2.557c.122.784.725 1.323 1.637 1.444.956.126 1.8-.056 2.326-.887.081-.128.193-.241.346-.43l2.206 1.014c-.357.81-.978 1.311-1.659 1.759-2.518 1.661-6.749.909-7.962-1.851-1.013-2.305-.422-5.145 1.656-6.505 2.136-1.398 5.664-1.088 7.33.691.212.226.376.49.636.834z"/></symbol><symbol viewBox="0 0 48 48" id="cd-icon--doc-add" xmlns="http://www.w3.org/2000/svg"><path d="M47.06 2H18.94A1 1 0 0 0 18 3v25h6a5 5 0 0 1 0 10h-6v5a1 1 0 0 0 .94 1H39v-6.22A2.79 2.79 0 0 1 41.78 35H48V3a1 1 0 0 0-.94-1zM42 25H24a1 1 0 0 1 0-2h18a1 1 0 0 1 0 2zm0-6H24a1 1 0 0 1 0-2h18a1 1 0 0 1 0 2zm0-6H24a1 1 0 0 1 0-2h18a1 1 0 0 1 0 2z"/><path d="M41.78 37a.78.78 0 0 0-.78.78V44l7-7h-6.22zM24 31h-9v-9a2 2 0 0 0-4 0v9H2a2 2 0 0 0 0 4h9v9a2 2 0 0 0 4 0v-9h9a2 2 0 0 0 0-4z"/></symbol><symbol viewBox="0 0 48 48" id="cd-icon--doc-default" xmlns="http://www.w3.org/2000/svg"><path d="M38.06 3H9.94A1 1 0 0 0 9 4v40a1 1 0 0 0 .94 1H30v-6.22A2.79 2.79 0 0 1 32.78 36H39V4a1 1 0 0 0-.94-1zM33 26H15a1 1 0 0 1 0-2h18a1 1 0 0 1 0 2zm0-6H15a1 1 0 0 1 0-2h18a1 1 0 0 1 0 2zm0-6H15a1 1 0 0 1 0-2h18a1 1 0 0 1 0 2z"/><path d="M32.78 38a.78.78 0 0 0-.78.78V45l7-7h-6.22z"/></symbol><symbol viewBox="0 0 48 48" id="cd-icon--doc-remove" xmlns="http://www.w3.org/2000/svg"><path d="M47.06 3H18.94A1 1 0 0 0 18 4v25h6a5 5 0 0 1 0 10h-6v5a1 1 0 0 0 .94 1H39v-6.22A2.79 2.79 0 0 1 41.78 36H48V4a1 1 0 0 0-.94-1zM42 26H24a1 1 0 0 1 0-2h18a1 1 0 0 1 0 2zm0-6H24a1 1 0 0 1 0-2h18a1 1 0 0 1 0 2zm0-6H24a1 1 0 0 1 0-2h18a1 1 0 0 1 0 2z"/><path d="M41.78 38a.78.78 0 0 0-.78.78V45l7-7h-6.22z"/><path d="M41.78 38a.78.78 0 0 0-.78.78V45l7-7h-6.22zM24 36H2a2 2 0 0 1 0-4h22a2 2 0 0 1 0 4z"/></symbol><symbol viewBox="0 0 48 48" id="cd-icon--doc-spreadsheet" xmlns="http://www.w3.org/2000/svg"><path d="M43 3H7a2 2 0 0 0-2 2v36a2 2 0 0 0 2 2h36a2 2 0 0 0 2-2V5a2 2 0 0 0-2-2zm-1 19H26v-6h16zm0 9H26v-6h16zm-18 0H8v-6h16zm-9-15h9v6H8v-6zm0 24H8v-6h16v6h-9zm27 0H26v-6h16z"/></symbol><symbol viewBox="0 0 48 48" id="cd-icon--download" xmlns="http://www.w3.org/2000/svg"><path d="M7.88 33.12l14 14a3 3 0 0 0 4.24 0l14-14a3 3 0 0 0-4.24-4.24L27 37.76V12a3 3 0 0 0-6 0v25.76l-8.88-8.88a3 3 0 0 0-4.24 4.24z"/><path d="M45.8 0H2.2A2.37 2.37 0 0 0 0 2.51v9A2.37 2.37 0 0 0 2.2 14H18v-2a6 6 0 0 1 12 0v2h15.8a2.37 2.37 0 0 0 2.2-2.51v-9A2.37 2.37 0 0 0 45.8 0zM36 9a2 2 0 1 1 2-2 2 2 0 0 1-2 2zm7 0a2 2 0 1 1 2-2 2 2 0 0 1-2 2z"/></symbol><symbol viewBox="0 0 48 48" id="cd-icon--exit" xmlns="http://www.w3.org/2000/svg"><path d="M29.66 24L45.83 7.83a4 4 0 0 0-5.66-5.66L24 18.34 7.83 2.17a4 4 0 0 0-5.66 5.66L18.34 24 2.17 40.17a4 4 0 0 0 5.66 5.66L24 29.66l16.17 16.17a4 4 0 0 0 5.66-5.66z"/></symbol><symbol viewBox="0 0 48 48" id="cd-icon--favourite" xmlns="http://www.w3.org/2000/svg"><path d="M43.66 8.2l-.36-.36a11.4 11.4 0 0 0-16.13 0L24 11l-3.18-3.15a11.4 11.4 0 0 0-16.13 0l-.36.36a11.4 11.4 0 0 0 0 16.13l18.82 18.8a1.2 1.2 0 0 0 1.7 0l18.81-18.81a11.4 11.4 0 0 0 0-16.13z"/></symbol><symbol viewBox="0 0 48 48" id="cd-icon--file-comp" xmlns="http://www.w3.org/2000/svg"><path d="M32.78 38a.78.78 0 0 0-.78.78V45l7-7h-6.22zM29 20h2v2h-2z"/><path d="M38.06 3H33v2h-3v2h3v2h-3v2h3v2h-3v2h3v8a1 1 0 0 1-1 1h-4a1 1 0 0 1-1-1v-6h3v-2h-3v-2h3v-2h-3V9h3V7h-3V5h3V3H9.94A1 1 0 0 0 9 4v40a1 1 0 0 0 .94 1H30v-6.22A2.79 2.79 0 0 1 32.78 36H39V4a1 1 0 0 0-.94-1z"/></symbol><symbol viewBox="0 0 48 48" id="cd-icon--file-csv" xmlns="http://www.w3.org/2000/svg"><path d="M32.78 38a.78.78 0 0 0-.78.78V45l7-7h-6.22z"/><path d="M38.06 3H9.94A1 1 0 0 0 9 4v40a1 1 0 0 0 .94 1H30v-6.22A2.79 2.79 0 0 1 32.78 36H39V4a1 1 0 0 0-.94-1zm-23 24.87a1.47 1.47 0 0 0 .74.51 1.39 1.39 0 0 0 .91-.07 1.36 1.36 0 0 0 .67-.59 1 1 0 0 1 .58-.44.86.86 0 0 1 .7.09 1 1 0 0 1 .44.58.82.82 0 0 1-.11.7 3.23 3.23 0 0 1-3.68 1.52 3.14 3.14 0 0 1-1-.44A3.25 3.25 0 0 1 12.95 27v-6.61a3.24 3.24 0 0 1 1.44-2.72 3.14 3.14 0 0 1 1-.44A3.23 3.23 0 0 1 19 18.75a.82.82 0 0 1 .11.7 1 1 0 0 1-.44.58.86.86 0 0 1-.7.09 1 1 0 0 1-.58-.44 1.37 1.37 0 0 0-.67-.59 1.32 1.32 0 0 0-.91 0 1.34 1.34 0 0 0-.74.5 1.36 1.36 0 0 0-.29.85V27a1.34 1.34 0 0 0 .33.87zm11.1.66a3.62 3.62 0 0 1-.92 1.07 3.24 3.24 0 0 1-1.29.6 3.35 3.35 0 0 1-2.73-.55 3.2 3.2 0 0 1-.94-1 .83.83 0 0 1-.11-.71.93.93 0 0 1 .44-.58.86.86 0 0 1 .7-.09 1 1 0 0 1 .58.44 1.5 1.5 0 0 0 1 .72 1.48 1.48 0 0 0 1.21-.29 1.27 1.27 0 0 0 .41-.47 1.81 1.81 0 0 0 .18-.6 1.47 1.47 0 0 0-.41-1.17l-3.12-3.19a3.08 3.08 0 0 1-.74-1.17 3.25 3.25 0 0 1-.18-1.36 3.32 3.32 0 0 1 .39-1.32 3.27 3.27 0 0 1 2.15-1.63 3.27 3.27 0 0 1 1.37 0 3.58 3.58 0 0 1 1.26.55 3.06 3.06 0 0 1 .93 1 .86.86 0 0 1 .09.7 1 1 0 0 1-.44.58.86.86 0 0 1-.7.09.93.93 0 0 1-.56-.44 1.51 1.51 0 0 0-.94-.68 1.36 1.36 0 0 0-1.13.27 1.4 1.4 0 0 0-.16 2.08l3.1 3.19a3.46 3.46 0 0 1 .76 1.21 3.23 3.23 0 0 1 .19 1.4 3.27 3.27 0 0 1-.34 1.35zM35.5 18.3l-3.12 11.3a1 1 0 0 1-.34.5.89.89 0 0 1-.56.19.92.92 0 0 1-.57-.19 1 1 0 0 1-.34-.5l-3.11-11.3a1 1 0 0 1 .09-.72.87.87 0 0 1 .57-.43.94.94 0 0 1 .71.09.86.86 0 0 1 .44.55q.37 1.38.76 2.79l.72 2.61.74 2.65q.33-1.25.72-2.65l.72-2.61q.37-1.4.76-2.79a.86.86 0 0 1 .44-.55.94.94 0 0 1 .71-.09.87.87 0 0 1 .57.43 1 1 0 0 1 .09.72z"/></symbol><symbol viewBox="0 0 48 48" id="cd-icon--file-doc" xmlns="http://www.w3.org/2000/svg"><path d="M32.78 38a.78.78 0 0 0-.78.78V45l7-7h-6.22zM16.32 19.06h-1.4v9.27h1.4a1.4 1.4 0 0 0 1.4-1.4v-6.47a1.4 1.4 0 0 0-1.4-1.4zM24.42 19a1.4 1.4 0 0 0-1.4 1.4V27a1.4 1.4 0 1 0 2.8 0v-6.61a1.4 1.4 0 0 0-1.4-1.4z"/><path d="M38.06 3H9.94A1 1 0 0 0 9 4v40a1 1 0 0 0 .94 1H30v-6.22A2.79 2.79 0 0 1 32.78 36H39V4a1 1 0 0 0-.94-1zM19.59 26.93a3.24 3.24 0 0 1-.25 1.28A3.27 3.27 0 0 1 17.59 30a3.23 3.23 0 0 1-1.28.25H14a.93.93 0 0 1-.93-.93V18.13a.93.93 0 0 1 .93-.93h2.34a3.22 3.22 0 0 1 1.28.25 3.27 3.27 0 0 1 1 .7 3.31 3.31 0 0 1 .7 1 3.24 3.24 0 0 1 .25 1.28zm8.1.08a3.22 3.22 0 0 1-.25 1.28 3.28 3.28 0 0 1-6 0 3.2 3.2 0 0 1-.29-1.29v-6.61a3.21 3.21 0 0 1 .25-1.28 3.28 3.28 0 0 1 6 0 3.22 3.22 0 0 1 .25 1.28zm3.72.86a1.47 1.47 0 0 0 .74.51 1.39 1.39 0 0 0 .91-.07 1.37 1.37 0 0 0 .67-.59 1 1 0 0 1 .58-.44.86.86 0 0 1 .7.09 1 1 0 0 1 .44.58.82.82 0 0 1-.11.7 3.23 3.23 0 0 1-3.68 1.52 3.15 3.15 0 0 1-1-.44 3.23 3.23 0 0 1-.77-.72 3.28 3.28 0 0 1-.5-.93 3.24 3.24 0 0 1-.14-1.08v-6.61a3.24 3.24 0 0 1 1.44-2.72 3.15 3.15 0 0 1 1-.44 3.23 3.23 0 0 1 3.68 1.52.82.82 0 0 1 .11.7A1 1 0 0 1 35 20a.86.86 0 0 1-.7.09 1 1 0 0 1-.58-.44 1.37 1.37 0 0 0-.67-.59 1.32 1.32 0 0 0-.91 0 1.34 1.34 0 0 0-.74.5 1.36 1.36 0 0 0-.29.85V27a1.35 1.35 0 0 0 .3.87z"/></symbol><symbol viewBox="0 0 48 48" id="cd-icon--file-json" xmlns="http://www.w3.org/2000/svg"><path d="M32.78 38a.78.78 0 0 0-.78.78V45l7-7h-6.22zM25.88 19.88A1.15 1.15 0 0 0 24.73 21v5.44a1.15 1.15 0 1 0 2.3 0V21a1.15 1.15 0 0 0-1.15-1.15z"/><path d="M38.06 3H9.94A1 1 0 0 0 9 4v40a1 1 0 0 0 .94 1H30v-6.22A2.79 2.79 0 0 1 32.78 36H39V4a1 1 0 0 0-.94-1zM15.67 26.47a2.61 2.61 0 0 1-.37 1.34 2.81 2.81 0 0 1-1 1 2.72 2.72 0 0 1-1.36.35 2.6 2.6 0 0 1-1.33-.35.83.83 0 0 1-.36-.48.71.71 0 0 1 .07-.58.77.77 0 0 1 .47-.36.72.72 0 0 1 .58.07 1.12 1.12 0 0 0 1.15 0 1 1 0 0 0 .42-.41 1.15 1.15 0 0 0 .15-.58v-7.36a.77.77 0 1 1 1.54 0zm6.14 1.25a3 3 0 0 1-.75.88 2.67 2.67 0 0 1-1.06.5 2.75 2.75 0 0 1-2.24-.46 2.62 2.62 0 0 1-.77-.86.69.69 0 0 1-.09-.58.77.77 0 0 1 .36-.47.71.71 0 0 1 .58-.07.83.83 0 0 1 .48.36 1.23 1.23 0 0 0 .82.59 1.21 1.21 0 0 0 1-.24 1.05 1.05 0 0 0 .34-.38 1.5 1.5 0 0 0 .14-.5 1.2 1.2 0 0 0-.34-1l-2.56-2.59a2.55 2.55 0 0 1-.61-1 2.67 2.67 0 0 1-.11-1.08 2.72 2.72 0 0 1 .32-1.08 2.68 2.68 0 0 1 1.77-1.34 2.68 2.68 0 0 1 1.13 0 3 3 0 0 1 1 .46 2.51 2.51 0 0 1 .76.84.71.71 0 0 1 .07.58.83.83 0 0 1-.36.48.7.7 0 0 1-.58.07.76.76 0 0 1-.46-.36 1.25 1.25 0 0 0-.77-.56 1.12 1.12 0 0 0-.93.22 1.15 1.15 0 0 0-.13 1.71l2.54 2.62a2.85 2.85 0 0 1 .62 1 2.66 2.66 0 0 1 .16 1.15 2.7 2.7 0 0 1-.32 1.11zm6.75-1.25A2.7 2.7 0 0 1 24.83 29a2.69 2.69 0 0 1-1.43-1.43 2.64 2.64 0 0 1-.21-1V21a2.66 2.66 0 0 1 .78-1.9 2.69 2.69 0 0 1 .86-.58 2.74 2.74 0 0 1 2.1 0A2.67 2.67 0 0 1 28.57 21zm7.49 1.92a.74.74 0 0 1-.17.48.77.77 0 0 1-.42.27.73.73 0 0 1-.51-.06.74.74 0 0 1-.35-.36q-.48-1-1-2.1l-1-2-1-2.14v5.92a.77.77 0 1 1-1.54 0v-9.29a.77.77 0 0 1 .16-.48.75.75 0 0 1 .43-.27.72.72 0 0 1 .5.06.85.85 0 0 1 .36.36q.48 1 1 2.1l1 2Q34 24 34.52 25v-5.89a.77.77 0 1 1 1.54 0z"/></symbol><symbol viewBox="0 0 48 48" id="cd-icon--file-pdf" xmlns="http://www.w3.org/2000/svg"><path d="M32.78 38a.78.78 0 0 0-.78.78V45l7-7h-6.22zM16.72 19.06h-1.4V23h1.4a1.4 1.4 0 0 0 1.4-1.4v-1.14a1.4 1.4 0 0 0-1.4-1.4zM24.51 19.06H23.1v9.27h1.4a1.4 1.4 0 0 0 1.4-1.4v-6.47a1.4 1.4 0 0 0-1.4-1.4z"/><path d="M38.06 3H9.94A1 1 0 0 0 9 4v40a1 1 0 0 0 .94 1H30v-6.22A2.79 2.79 0 0 1 32.78 36H39V4a1 1 0 0 0-.94-1zM20 21.56a3.23 3.23 0 0 1-.25 1.28A3.27 3.27 0 0 1 18 24.57a3.22 3.22 0 0 1-1.28.25h-1.4v4.52a.94.94 0 1 1-1.87 0V18.13a.93.93 0 0 1 .94-.93h2.34a3.22 3.22 0 0 1 1.28.25 3.27 3.27 0 0 1 1.74 1.74 3.23 3.23 0 0 1 .25 1.27zm7.79 5.38a3.23 3.23 0 0 1-.25 1.28A3.27 3.27 0 0 1 25.78 30a3.24 3.24 0 0 1-1.28.25h-2.33a.93.93 0 0 1-.94-.93V18.13a.93.93 0 0 1 .94-.93h2.34a3.22 3.22 0 0 1 1.28.25 3.27 3.27 0 0 1 1.74 1.74 3.23 3.23 0 0 1 .25 1.28zm7.28-8.14a.9.9 0 0 1-.66.27h-3v3.51H34a.93.93 0 1 1 0 1.87h-2.56v4.83a.94.94 0 1 1-1.87 0V18.13a.93.93 0 0 1 .94-.93h3.9a.94.94 0 0 1 .66 1.6z"/></symbol><symbol viewBox="0 0 48 48" id="cd-icon--file-svg" xmlns="http://www.w3.org/2000/svg"><path d="M32.78 38a.78.78 0 0 0-.78.78V45l7-7h-6.22z"/><path d="M38.06 3H9.94A1 1 0 0 0 9 4v40a1 1 0 0 0 .94 1H30v-6.22A2.79 2.79 0 0 1 32.78 36H39V4a1 1 0 0 0-.94-1zM18.45 28.53a3.62 3.62 0 0 1-.92 1.07 3.23 3.23 0 0 1-1.29.6 3.35 3.35 0 0 1-2.73-.55 3.21 3.21 0 0 1-.94-1 .84.84 0 0 1-.11-.71.94.94 0 0 1 .44-.58.86.86 0 0 1 .7-.09 1 1 0 0 1 .58.44 1.5 1.5 0 0 0 1 .72 1.48 1.48 0 0 0 1.21-.29 1.26 1.26 0 0 0 .41-.47A1.78 1.78 0 0 0 17 27a1.47 1.47 0 0 0-.41-1.17l-3.12-3.19a3.08 3.08 0 0 1-.74-1.17 3.25 3.25 0 0 1-.18-1.36 3.33 3.33 0 0 1 .39-1.32 3.26 3.26 0 0 1 2.15-1.63 3.27 3.27 0 0 1 1.37 0 3.58 3.58 0 0 1 1.26.55 3.06 3.06 0 0 1 .93 1 .86.86 0 0 1 .09.7 1 1 0 0 1-.44.58.86.86 0 0 1-.7.09.94.94 0 0 1-.56-.44 1.51 1.51 0 0 0-.94-.68 1.36 1.36 0 0 0-1.13.27 1.4 1.4 0 0 0-.16 2.08l3.1 3.19a3.48 3.48 0 0 1 .76 1.21 3.33 3.33 0 0 1-.21 2.77zm9.29-10.23l-3.12 11.3a1 1 0 0 1-.34.5.89.89 0 0 1-.56.19.92.92 0 0 1-.58-.19 1 1 0 0 1-.34-.5l-3.1-11.3a1 1 0 0 1 .09-.72.87.87 0 0 1 .57-.43.94.94 0 0 1 .71.09.86.86 0 0 1 .44.55q.37 1.38.76 2.79l.73 2.61.74 2.65q.33-1.25.72-2.65l.72-2.61q.37-1.4.76-2.79a.86.86 0 0 1 .44-.55.94.94 0 0 1 .71-.09.87.87 0 0 1 .57.43 1 1 0 0 1 .08.72zm7.65 8.7a3.22 3.22 0 0 1-.25 1.28A3.3 3.3 0 0 1 30.85 30a3.16 3.16 0 0 1-1-.7 3.49 3.49 0 0 1-.7-1 3.11 3.11 0 0 1-.3-1.3v-6.61a3.24 3.24 0 0 1 1.44-2.72 3.11 3.11 0 0 1 1-.44 3.49 3.49 0 0 1 1.07-.11 3.09 3.09 0 0 1 1 .23 3.38 3.38 0 0 1 .9.56 3.08 3.08 0 0 1 .68.84.86.86 0 0 1 .09.7 1 1 0 0 1-.44.58.86.86 0 0 1-.7.09.93.93 0 0 1-.56-.44 1.48 1.48 0 0 0-.69-.59 1.27 1.27 0 0 0-.89 0 1.39 1.39 0 0 0-1.05 1.34V27a1.34 1.34 0 0 0 .42 1 1.4 1.4 0 0 0 2.39-1v-2.17h-1a.93.93 0 1 1 0-1.87h1.95a.93.93 0 0 1 .94.93z"/></symbol><symbol viewBox="0 0 48 48" id="cd-icon--file-xlsx" xmlns="http://www.w3.org/2000/svg"><path d="M32.78 38a.78.78 0 0 0-.78.78V45l7-7h-6.22z"/><path d="M38.06 3H9.94A1 1 0 0 0 9 4v40a1 1 0 0 0 .94 1H30v-6.22A2.79 2.79 0 0 1 32.78 36H39V4a1 1 0 0 0-.94-1zM17.91 28.63a.75.75 0 0 1-.39.45.7.7 0 0 1-.58 0 .77.77 0 0 1-.45-.38l-1.71-3.4-1.71 3.44a.77.77 0 0 1-.45.38.74.74 0 0 1-.59 0 .77.77 0 0 1-.38-.45.7.7 0 0 1 0-.58l2.22-4.46-2.06-4.13a.73.73 0 0 1 0-.59.76.76 0 0 1 .38-.45.74.74 0 0 1 .59 0 .76.76 0 0 1 .45.39l1.55 3.1 1.55-3.1a.76.76 0 0 1 .45-.39.7.7 0 0 1 .58 0 .75.75 0 0 1 .39.45.74.74 0 0 1 0 .59l-2.06 4.13 2.22 4.46a.7.7 0 0 1 0 .54zm5.59.24a.74.74 0 0 1-.54.22h-3.2a.77.77 0 0 1-.77-.77v-9.21a.77.77 0 1 1 1.54 0v8.45H23a.77.77 0 0 1 .54 1.31zm5.6-1.15a3 3 0 0 1-.75.88 2.66 2.66 0 0 1-1.06.5 2.74 2.74 0 0 1-2.24-.46 2.63 2.63 0 0 1-.77-.86.68.68 0 0 1-.09-.58.77.77 0 0 1 .36-.47.71.71 0 0 1 .58-.07.84.84 0 0 1 .48.36 1.23 1.23 0 0 0 .82.59 1.21 1.21 0 0 0 1-.24 1 1 0 0 0 .34-.38 1.5 1.5 0 0 0 .14-.5 1.21 1.21 0 0 0-.34-1L25 22.9a2.52 2.52 0 0 1-.61-1 2.66 2.66 0 0 1-.14-1.12 2.72 2.72 0 0 1 .32-1.08 2.68 2.68 0 0 1 1.77-1.34 2.68 2.68 0 0 1 1.13 0 3 3 0 0 1 1 .46 2.5 2.5 0 0 1 .76.84.7.7 0 0 1 .07.58.83.83 0 0 1-.36.48.7.7 0 0 1-.58.07.76.76 0 0 1-.46-.36 1.25 1.25 0 0 0-.77-.56 1.12 1.12 0 0 0-.93.22 1.15 1.15 0 0 0-.13 1.71l2.54 2.62a2.84 2.84 0 0 1 .62 1 2.63 2.63 0 0 1 .16 1.15 2.67 2.67 0 0 1-.29 1.15zm7.24.91a.75.75 0 0 1-.39.45.7.7 0 0 1-.58 0 .77.77 0 0 1-.45-.38l-1.7-3.4-1.72 3.44a.77.77 0 0 1-.45.38.74.74 0 0 1-.59 0 .77.77 0 0 1-.38-.45.7.7 0 0 1 0-.58l2.22-4.46-2.06-4.13a.73.73 0 0 1 0-.59.76.76 0 0 1 .38-.45.74.74 0 0 1 .59 0 .76.76 0 0 1 .45.39l1.55 3.1 1.55-3.1a.76.76 0 0 1 .45-.39.7.7 0 0 1 .58 0 .75.75 0 0 1 .39.45.74.74 0 0 1 0 .59l-2.06 4.13 2.22 4.46a.7.7 0 0 1 0 .54z"/></symbol><symbol viewBox="0 0 44 48" id="cd-icon--filter" xmlns="http://www.w3.org/2000/svg"><path d="M41.796 0H2.204A2.2 2.2 0 0 0 .65 3.756L18 22.19V48h8V22.19L43.351 3.756A2.2 2.2 0 0 0 41.796 0z"/></symbol><symbol viewBox="0 0 48 48" id="cd-icon--folder" xmlns="http://www.w3.org/2000/svg"><path d="M44 6H31a2 2 0 0 0-2 2v3H4a2 2 0 0 0-2 2v29h44V8a2 2 0 0 0-2-2z"/></symbol><symbol viewBox="0 0 48 48" id="cd-icon--group" xmlns="http://www.w3.org/2000/svg"><circle cx="10" cy="17" r="5"/><circle cx="38" cy="17" r="5"/><path d="M39 24h-2a9 9 0 0 0-3.66.78A14 14 0 0 1 39 36h9v-3a9 9 0 0 0-9-9zM14.66 24.78A9 9 0 0 0 11 24H9a9 9 0 0 0-9 9v3h9a14 14 0 0 1 5.66-11.22zM23 25h2a11 11 0 0 1 11 11v3H12v-3a11 11 0 0 1 11-11z"/><circle cx="24" cy="16" r="7"/></symbol><symbol viewBox="0 0 28 48" id="cd-icon--help" xmlns="http://www.w3.org/2000/svg"><circle class="bocls-1" cx="14" cy="44" r="4"/><path class="bocls-1" d="M28 14a14 14 0 0 0-28 0 4 4 0 0 0 8 0 6 6 0 1 1 6 6 4 4 0 0 0-4 4v9a4 4 0 0 0 8 0v-5.59A14.02 14.02 0 0 0 28 14z"/></symbol><symbol viewBox="0 0 48 48" id="cd-icon--hide" xmlns="http://www.w3.org/2000/svg"><path d="M16 24a8 8 0 0 1 8.88-7.95l6.29-6.29A32.24 32.24 0 0 0 24 9C14.17 9 6.08 12.78.62 21.8a4.22 4.22 0 0 0 0 4.39 27.27 27.27 0 0 0 6.58 7.54l8.85-8.85A8.07 8.07 0 0 1 16 24zM47.38 21.8a27.27 27.27 0 0 0-6.59-7.53l-8.85 8.85a8 8 0 0 1-8.83 8.83l-6.29 6.29A32.24 32.24 0 0 0 24 39c9.83 0 17.92-3.78 23.38-12.8a4.23 4.23 0 0 0 0-4.4zM5 45a2 2 0 0 1-1.41-3.41l38-38a2 2 0 0 1 2.83 2.83l-38 38A2 2 0 0 1 5 45z"/></symbol><symbol viewBox="0 0 48 48" id="cd-icon--home" xmlns="http://www.w3.org/2000/svg"><path d="M41.64 16.7L24 2 6.36 16.7a1 1 0 0 0-.36.77V46h13V33a1 1 0 0 1 1-1h8a1 1 0 0 1 1 1v13h13V17.47a1 1 0 0 0-.36-.77z"/></symbol><symbol class="bricons-sprite" viewBox="0 0 0 0" id="cd-icon--icons-sprite" xmlns="http://www.w3.org/2000/svg"/><symbol viewBox="0 0 48 48" id="cd-icon--info" xmlns="http://www.w3.org/2000/svg"><path d="M41 3H7a4 4 0 0 0-4 4v34a4 4 0 0 0 4 4h34a4 4 0 0 0 4-4V7a4 4 0 0 0-4-4zM27 38h-4a2 2 0 0 1-2-2V21h4a2 2 0 0 1 2 2zm-3-22a3 3 0 1 1 3-3 3 3 0 0 1-3 3z"/></symbol><symbol viewBox="0 0 48 48" id="cd-icon--list-bullet" xmlns="http://www.w3.org/2000/svg"><path fill="#ff4d59" d="M14 48a4 4 0 0 1-2.83-6.83L28.34 24 11.17 6.83a4 4 0 0 1 5.66-5.66l20 20a4 4 0 0 1 0 5.66l-20 20A4 4 0 0 1 14 48z"/></symbol><symbol viewBox="0 0 48 48" id="cd-icon--location" xmlns="http://www.w3.org/2000/svg"><path d="M24 0A17 17 0 0 0 7 17c0 7.85 11.9 25 15.79 30.35a1.5 1.5 0 0 0 2.43 0C29.1 42 41 24.87 41 17A17 17 0 0 0 24 0zm0 25a8 8 0 1 1 8-8 8 8 0 0 1-8 8z"/></symbol><symbol viewBox="0 0 48 48" id="cd-icon--menu" xmlns="http://www.w3.org/2000/svg"><path d="M3 15h42a3 3 0 0 0 0-6H3a3 3 0 0 0 0 6zM45 33H3a3 3 0 0 0 0 6h42a3 3 0 0 0 0-6zM45 21H3a3 3 0 0 0 0 6h42a3 3 0 0 0 0-6z"/></symbol><symbol viewBox="0 0 48 48" id="cd-icon--more" xmlns="http://www.w3.org/2000/svg"><circle cx="24" cy="6" r="5"/><circle cx="24" cy="24" r="5"/><circle cx="24" cy="42" r="5"/></symbol><symbol viewBox="0 0 48 48" id="cd-icon--next" xmlns="http://www.w3.org/2000/svg"><path d="M47.12 21.88l-14-14a3 3 0 0 0-4.24 4.24L37.76 21H3a3 3 0 0 0 0 6h34.76l-8.88 8.88a3 3 0 1 0 4.24 4.24l14-14a3 3 0 0 0 0-4.24z"/></symbol><symbol viewBox="0 0 48 48" id="cd-icon--notification" xmlns="http://www.w3.org/2000/svg"><path d="M23 48h2a4 4 0 0 0 4-4H19a4 4 0 0 0 4 4zM38.5 33h-.17l-1.88-14.1A12.55 12.55 0 0 0 29 9V5a5 5 0 0 0-10 0v4a12.55 12.55 0 0 0-7.45 9.85L9.67 33H9.5a4.5 4.5 0 0 0 0 9h29a4.5 4.5 0 0 0 0-9zM24 3a2 2 0 1 1-2 2 2 2 0 0 1 2-2z"/></symbol><symbol viewBox="0 0 41.9 37" id="cd-icon--ocha-logo" xmlns="http://www.w3.org/2000/svg"><defs><style>.bzcls-1{fill:#fff}</style></defs><g id="bzPage-1"><g id="bzArtboard"><g id="bzocha-logo"><g id="bzGroup"><path id="bzShape" class="bzcls-1" d="M17.6 15.6a3.3 3.3 0 1 1 3.3 3.3v-.4a2.9 2.9 0 1 0-2.9-2.9 2.9 2.9 0 0 0 2.9 2.9v.4a3.33 3.33 0 0 1-3.3-3.3"/><path id="bzShape-2" data-name="Shape" class="bzcls-1" d="M15 15.6a6 6 0 1 1 6 6v-.4a5.6 5.6 0 1 0-5.6-5.6 5.59 5.59 0 0 0 5.6 5.6v.4a6 6 0 0 1-6-6"/><path id="bzShape-3" data-name="Shape" class="bzcls-1" d="M12.1 15.6a8.9 8.9 0 1 1 8.9 8.9V24a8.54 8.54 0 0 0 8.5-8.4 8.5 8.5 0 1 0-17 0A8.41 8.41 0 0 0 21 24v.4a8.77 8.77 0 0 1-8.9-8.8"/><path id="bzShape-4" data-name="Shape" class="bzcls-1" d="M9.3 15.6A11.65 11.65 0 1 1 21 27.2v-.4A11.2 11.2 0 1 0 9.8 15.6 11.18 11.18 0 0 0 21 26.8v.4A11.63 11.63 0 0 1 9.3 15.6"/><path id="bzShape-5" data-name="Shape" class="bzcls-1" d="M6.3 15.6A14.7 14.7 0 1 1 21 30.3v-.4A14.3 14.3 0 1 0 6.7 15.6 14.3 14.3 0 0 0 21 29.9v.4A14.66 14.66 0 0 1 6.3 15.6"/><path id="bzRectangle-path" class="bzcls-1" d="M20.7 1.1h.4v11.4h-.4z"/><path id="bzShape-6" data-name="Shape" class="bzcls-1" d="M10.6 5.5l.3-.3 8 8-.3.3-8-8z"/><path id="bzRectangle-path-2" data-name="Rectangle-path" class="bzcls-1" d="M6.5 15.4h11.4v.4H6.5z"/><path id="bzShape-7" data-name="Shape" class="bzcls-1" d="M10.6 25.7l8-8 .3.3-8 8-.3-.3z"/><path id="bzRectangle-path-3" data-name="Rectangle-path" class="bzcls-1" d="M20.7 18.7h.4v11.4h-.4z"/><path id="bzRectangle-path-4" data-name="Rectangle-path" class="bzcls-1" transform="rotate(-44.83 27.15 21.766)" d="M26.94 16.11h.4v11.3h-.4z"/><path id="bzRectangle-path-5" data-name="Rectangle-path" class="bzcls-1" d="M24.1 15.4h11.4v.4H24.1z"/><path id="bzShape-8" data-name="Shape" class="bzcls-1" d="M23 13.2l8.1-8 .2.3-8 8-.3-.3z"/><path id="bzShape-9" data-name="Shape" class="bzcls-1" d="M18.7 16.5c.1 0 .1.1.1.2h.1a2.51 2.51 0 0 0 .4-.7.1.1 0 0 0 .1-.1c0-.1-.2-.2-.2-.3-.1.2-.3 0-.4.1v.1h.1v.2a.37.37 0 0 0-.3-.1c.1 0 0 0 0 .1a.75.75 0 0 0-.5.1c-.1 0-.1 0-.2-.1-.1.1-.1.2-.2.2l-.1-.1c.1-.1.2-.1.2-.2v-.3c.1-.1.1-.2.2-.2s.3.1.4 0l.1.1v.1c-.1.1-.2.1-.2.2s0 .1.1.1.1-.1.2-.1h.4c.1 0 .1-.3 0-.4v-.2c0-.1.2-.1.2 0v.1s0 .1.1 0v-.2a.35.35 0 0 0 .2.1h.2c.1 0 .1-.1 0-.2h-.1a.31.31 0 0 1-.2.1c-.1 0-.1-.1-.2-.1s-.2.1-.2 0-.1-.1-.1-.2l.1-.1a.37.37 0 0 0 .3-.1.35.35 0 0 1 .1-.2h.1a.37.37 0 0 0 .3-.1c.1 0 .2-.1.3-.2s.1-.1.2-.1a.1.1 0 0 1 .1-.1v-.5a.1.1 0 0 1 .1-.1h-.1s-.1-.1 0-.1.2 0 .2-.1a.19.19 0 0 0-.1-.3c-.1-.1-.2 0-.3 0a.1.1 0 0 1-.1.1c-.1 0-.2-.1-.1-.2v-.1h-.1l-.3.3v.1c0 .1 0 .2-.1.2h-.1c0 .1.2.1.1.2s-.2.1-.4.2a2.72 2.72 0 0 1-.9 0h-.5c-.1 0-.1.1-.2.2v-.2c0-.1-.1 0-.1-.1-.2-.4-.7-.3-1.1-.3a.1.1 0 0 0-.1.1c-.1.1-.2 0-.3 0l-.1.1c-.1 0-.2-.1-.3 0s-.1.1-.2.1v.1h-.1c-.1 0-.3 0-.3.1s0 .3-.1.3a.6.6 0 0 0-.4.1c-.1 0-.1.1-.2.1a2.45 2.45 0 0 0-.4 1.2v.1c-.2.4-.3.6-.6 1.1-.1.2-.2.6 0 .7s0 .2-.2.2-.4 0-.4-.2-.2-.1-.3-.1h-.4c-.2 0-.2.3-.3.4s-.3.1-.3.2v.2a.1.1 0 0 0-.1.1v.1c0 .2-.1.3 0 .5v.1a.9.9 0 0 1-.1.5c-.1.2-.3.2-.5.2h-1c-.1 0-.1-.1-.2-.1a.31.31 0 0 1-.1-.2c-.1-.1-.3 0-.4.1.1 0 0 .1 0 .1s-.2.1-.3.2-.2-.2-.2-.3-.1-.1-.2-.1v.1h-.1c-.1.1.1.1.1.1v.1h-.1a.1.1 0 0 1-.1.1c-.1 0-.1.1-.1 0v-.2h-.1c0 .1 0 .1-.1.1v.1h.2a.37.37 0 0 1 .1.3c0 .1 0 .2-.1.1s0-.2 0-.3h-.1c.1.2-.1.3.1.5s-.2.2-.1.2a.35.35 0 0 0 .2.1v-.1s.1-.1.1 0v.1H8v.4c0 .1.2 0 .2.1s-.1.1 0 .2a.1.1 0 0 1 .1.1v.1a.1.1 0 0 1 .1.1c.1 0 .1 0 .1-.1s.1-.1.1-.2 0-.1-.1 0V21c0-.1-.1-.1-.1-.2s.1 0 .2-.1a.1.1 0 0 1 .1.1v.1a.1.1 0 0 1 .1.1c.1 0 .1.1.2.2h.3v-.1l.1.1a.37.37 0 0 0 .1.3h.1l.1.1h.1a.1.1 0 0 1 .1.1c.1 0 .2 0 .2.1s.1.2.2.4a29772.51 29772.51 0 0 1 .2.2.37.37 0 0 0 .3.1.35.35 0 0 1 .2-.1h.1c.1.2.1.4.3.4s.1.1.2.2h.2a.1.1 0 0 0 .1.1c.1.1.2.1.2.2v.1c.1 0 .2-.1.2 0s.2.1.2.2h.1v-.1c0-.1.1 0 .2-.1s.1-.2.1-.2.2.1.3.2h.1c.1.1.1.3.2.3s.2.1.4.2.2.1.3.1h.1c.1 0 .1 0 .2-.1s.3-.1.4-.2l.1-.1c.2-.1.5.1.7 0s.1 0 .2-.1.2-.3.1-.4-.2-.5-.3-.7l-.3-.3h-.1c-.1 0-.1-.1-.1-.2a.1.1 0 0 1-.1-.1v-.3c-.1 0-.2-.1-.4-.1a.1.1 0 0 1-.1-.1v-.1a.37.37 0 0 1 .3-.1v-.3a.1.1 0 0 0-.1-.1c0-.1.1-.2 0-.3s-.2-.2-.2-.3a.1.1 0 0 1-.1-.1v-.5c0-.1-.1-.1 0-.2l.1-.1c.1 0 .1-.1.1-.2a.14.14 0 0 0-.2 0v-.3l-.1-.1v-.2s0-.1-.1 0v-.2c0-.1-.1-.2-.2-.1a.14.14 0 0 1-.2 0V18a.1.1 0 0 0 .1-.1.14.14 0 0 0 0-.2c-.1-.1-.2-.2-.1-.3-.1 0-.3 0-.3-.2s0-.3-.1-.4v-.3a.1.1 0 0 1 .1-.1c.2 0 .4 0 .4-.1s-.1-.3 0-.3.4 0 .6-.2c.1 0 .1-.1 0-.2a.35.35 0 0 0-.1-.2c-.1-.1-.2 0-.3-.2V15c0-.1.1-.1.2-.2s.3 0 .5.1l.1.1v.1c0 .2.1.4 0 .6s-.1.1-.1.2h.1c0 .1.1.3 0 .4s-.1 0-.3 0-.1 0-.1.1l.1.1c.4.1.5.1.9.2.1 0 .1.1.2.1h.3a.1.1 0 0 0 .1.1c.1.1.1.3.2.3a.14.14 0 0 1 .2 0c-.1.1 0 .2 0 .3s.2.1.3.2.2.1.2 0-.1-.2 0-.3c.1.2 0 .4.1.6.1.1.1.2.2.2s.1-.1.1-.2v-.1c0-.1 0-.1.1-.2s.1-.2.1-.3v-.1c0-.1.2-.2.3-.2V17c.1 0 0-.2.1-.2s.1-.1.1-.2.1-.1 0-.1c.5.1.5 0 .5 0"/><path id="bzShape-10" data-name="Shape" class="bzcls-1" d="M14.5 16.3h-.1v.1l.1.1v.3c0 .1.1.2.2.1s.2-.3.1-.4-.1-.1-.3-.2"/><path id="bzShape-11" data-name="Shape" class="bzcls-1" d="M14.3 17.2c.1.2.2.1.3.1v-.1c-.1-.1-.1-.1-.3 0 .1-.1 0-.1 0-.1v.1"/><path id="bzShape-12" data-name="Shape" class="bzcls-1" d="M14.6 17.6c0-.2-.1-.2-.2-.1s0 .3.1.4a.1.1 0 0 0 .1.1c0 .1.1 0 .2 0s0-.1.1-.1c-.1-.1-.2-.3-.3-.3"/><path id="bzShape-13" data-name="Shape" class="bzcls-1" d="M14.3 16.8c0-.1-.1-.1 0 0-.1 0-.1 0-.1.1s0 .2.1.2a.1.1 0 0 0 .1-.1c-.1-.1-.1-.1-.1-.2"/><path id="bzShape-14" data-name="Shape" class="bzcls-1" d="M14.7 17.4l.1-.1h.1v-.1c-.1 0-.1.1-.2.1s0 .1 0 .1"/><path id="bzShape-15" data-name="Shape" class="bzcls-1" d="M14.6 18.3c0 .1 0 .1.1.1h.1v-.1h-.2"/><path id="bzShape-16" data-name="Shape" class="bzcls-1" d="M14.8 19c0-.1.1-.1 0-.2h-.1a.35.35 0 0 0 .1.2"/><path id="bzShape-17" data-name="Shape" class="bzcls-1" d="M8.5 21.5v.1h.2c-.1 0-.1-.2-.2-.1"/><path id="bzShape-18" data-name="Shape" class="bzcls-1" d="M9.1 22.2c-.1.1.1.2.2.2v-.2a.14.14 0 0 0-.2 0"/><path id="bzShape-19" data-name="Shape" class="bzcls-1" d="M9.4 22.6c0 .2.1.3.2.3.1-.2 0-.3-.2-.3"/><path id="bzShape-20" data-name="Shape" class="bzcls-1" d="M19.5 17.4a1.27 1.27 0 0 1 .6-.1c.4 0 .4-.6.6-.9a.6.6 0 0 0-.1-.4c-.1-.2-.6 0-.7-.2s.3.1.3-.1 0-.1-.1-.2h-.2a2 2 0 0 0-.4.8 5.38 5.38 0 0 0-.9 1.2c0 .1 0 .1.1.2.3.1.6-.2.8-.3"/><path id="bzShape-21" data-name="Shape" class="bzcls-1" d="M21.3 16.4c-.1 0-.1 0-.2.1v.2h.1c0-.1 0-.1-.1-.1.2-.1.2-.2.2-.2"/><path id="bzShape-22" data-name="Shape" class="bzcls-1" d="M20 17.9c.1.2.5.1.5 0s-.3-.2-.4-.2.1.1-.1.2"/><path id="bzShape-23" data-name="Shape" class="bzcls-1" d="M20.5 19.2a.37.37 0 0 0 .1-.3l-.3.3h.2"/><path id="bzShape-24" data-name="Shape" class="bzcls-1" d="M22.3 16.5v-.1h-.2c-.1 0-.1-.1-.1-.2s-.1-.2-.1-.3-.1.2-.1.2c.2.2.3.5.5.4"/><path id="bzShape-25" data-name="Shape" class="bzcls-1" d="M19.9 15.3c-.1-.1-.1 0 0 0-.1.1 0 .1 0 0"/><path id="bzShape-26" data-name="Shape" class="bzcls-1" d="M8.1 19.1A.1.1 0 0 0 8 19h-.1v.1a.14.14 0 0 0 .2 0"/><path id="bzShape-27" data-name="Shape" class="bzcls-1" d="M8.8 19.1c.1 0 .2-.1.1-.2s-.3 0-.2.1c-.1.1 0 .2.1.1"/><path id="bzShape-28" data-name="Shape" class="bzcls-1" d="M20.2 12.1c0-.1.1-.1.1-.2h-.1c-.1 0-.1.1 0 .2"/><path id="bzShape-29" data-name="Shape" class="bzcls-1" d="M20.5 12s.1-.1 0-.1h-.1a.1.1 0 0 0 .1.1"/><path id="bzShape-30" data-name="Shape" class="bzcls-1" d="M19.4 14.6c0 .1.2.3.3.2a.14.14 0 0 0 0-.2.19.19 0 0 0-.3 0"/><path id="bzShape-31" data-name="Shape" class="bzcls-1" d="M19.7 15.4v-.1h-.3a.1.1 0 0 0 .1.1c0-.1.1 0 .2 0"/><path id="bzShape-32" data-name="Shape" class="bzcls-1" d="M19.4 15.6c-.1 0 0 .1 0 .2s.1 0 .2-.1.1-.2 0-.2-.2 0-.2.1"/><path id="bzShape-33" data-name="Shape" class="bzcls-1" d="M19.2 15.3c0 .1-.1.2 0 .3s.1 0 .1 0 0-.2.1-.2h-.1v-.1h-.1"/><path id="bzShape-34" data-name="Shape" class="bzcls-1" d="M26.8 22.4c.1 0 0-.1 0 0"/><path id="bzShape-35" data-name="Shape" class="bzcls-1" d="M21 18.5l-.1-.1c0-.1-.1.1-.2 0 .1.1 0 .1-.1.2a.1.1 0 0 0 .1.1c0 .1-.1.1 0 .2l-.1.1s-.1.1 0 .1.2-.1.3-.1h.1c.1 0 .1-.1.2-.2H21s-.1 0 0-.3"/><path id="bzShape-36" data-name="Shape" class="bzcls-1" d="M21.6 20.4c0 .1.1.1 0 0 .1 0 .1-.1.1-.2h-.1v.2"/><path id="bzShape-37" data-name="Shape" class="bzcls-1" d="M21.7 20.2c.1 0 0-.1 0-.1h-.1a.1.1 0 0 0 .1.1"/><path id="bzShape-38" data-name="Shape" class="bzcls-1" d="M22.3 20.5c-.1 0-.1-.1-.2 0H22v.1c.2-.1.2-.1.3-.1"/><path id="bzShape-39" data-name="Shape" class="bzcls-1" d="M23.3 20.4v-.1c-.1 0-.2.1-.3 0v.1h-.1c.2.1.3 0 .4 0"/><path id="bzShape-40" data-name="Shape" class="bzcls-1" d="M23.7 20c0 .2.2.1.2 0s0-.1-.2 0l.1-.1a.1.1 0 0 1-.1.1"/><path id="bzShape-41" data-name="Shape" class="bzcls-1" d="M28.5 16.8c0 .1.1.1.2.1a.37.37 0 0 0 .3-.1.27.27 0 0 0-.3-.3c-.2.1-.2.2-.2.3"/><path id="bzShape-42" data-name="Shape" class="bzcls-1" d="M28.5 21.9h-.1c-.1.5-.6 1.2 0 1.5.2.2.5-.1.6-.3s0-1-.5-1.2"/><path id="bzShape-43" data-name="Shape" class="bzcls-1" d="M27 19.7c-.1 0-.1.2 0 .2a.1.1 0 0 0 .1-.1v-.1H27"/><path id="bzShape-44" data-name="Shape" class="bzcls-1" d="M27.4 24.8v.2s.2-.1 0-.2"/><path id="bzShape-45" data-name="Shape" class="bzcls-1" d="M29.7 13.1h-.1v.2c-.2.4-.7.9-.4 1.4a1.38 1.38 0 0 0 .3-.4 10.37 10.37 0 0 0 .4-1s-.1-.2-.2-.2"/><path id="bzShape-46" data-name="Shape" class="bzcls-1" d="M28.8 14.9c0 .1 0 .1.1.1s.1-.1 0-.1 0-.1-.1 0"/><path id="bzShape-47" data-name="Shape" class="bzcls-1" d="M23.7 11.8c-.1-.2-.2 0-.3 0l-.1-.1h-.1c-.1 0 0 .2.1.2s.1-.1.1 0 0 .3.2.2.2-.1.3-.1.1-.1.1-.2.2-.1.3 0a.1.1 0 0 0 .1.1c0 .1.1.1.2.1a.37.37 0 0 0 .3-.1.19.19 0 0 0 0-.3h-.2c-.1 0-.1-.1-.2-.1-.4-.1-.6.2-.8.3"/><path id="bzShape-48" data-name="Shape" class="bzcls-1" d="M22.7 12h.3c0-.2-.2-.1-.3-.1.1-.1.1 0 0 .1"/><path id="bzShape-49" data-name="Shape" class="bzcls-1" d="M23.1 12.6c.1-.1.3-.2.4-.3v-.1c0-.1-.1-.1-.2-.2a.1.1 0 0 1-.1.1c-.1.1-.2.1-.2.2v.2c.1.3.1.2.1.1"/><path id="bzShape-50" data-name="Shape" class="bzcls-1" d="M21.6 11.6v.1c.1.1.1 0 0-.1"/><path id="bzShape-51" data-name="Shape" class="bzcls-1" d="M18 9.4a.6.6 0 0 0 .4.1l.1-.1c-.1-.1-.2 0-.2-.1h-.1c-.1-.1-.2 0-.2.1"/><path id="bzShape-52" data-name="Shape" class="bzcls-1" d="M27.1 11c0 .1-.1 0-.2.1v.1c.1.1.2 0 .3 0s.1-.1.1 0v.1a.1.1 0 0 0-.1.1h-.3v.2c-.1.1-.4.2-.3.4a.75.75 0 0 0 .5.1c0-.2.1-.2.2-.3a.1.1 0 0 0-.1-.1v-.1a.1.1 0 0 0 .1-.1v-.1a.35.35 0 0 0 .2-.1c0-.1-.1-.2-.1-.3a.1.1 0 0 1 .1-.1v-.1h-.1s-.1 0 0 .1a.37.37 0 0 0-.3.1c0-.2.1 0 0 0"/><path id="bzShape-53" data-name="Shape" class="bzcls-1" d="M26.1 12c0 .1.1.1.2 0h-.2"/><path id="bzShape-54" data-name="Shape" class="bzcls-1" d="M27.5 11.8c-.1.1.1.1.2.1 0-.1-.1-.1-.2-.1"/><path id="bzShape-55" data-name="Shape" class="bzcls-1" d="M27.9 11.3c-.1 0-.1.1 0 0"/><path id="bzShape-56" data-name="Shape" class="bzcls-1" d="M25.6 7.3c.1.1.2.1.2.2v.4l.1.1v.2c0 .1.1.3.1.4a.1.1 0 0 1 .1.1c0 .1 0 .1.1.2s.1 0 .2.1.2.3.3.4a.1.1 0 0 1 .1.1v.1c.2 0 .5.1.4.4.1-.1.2-.1.2-.2s.1-.3 0-.4l-.2-.2V9a.1.1 0 0 0-.1-.1c0-.1-.1-.3.1-.3v-.1H27v-.1a.35.35 0 0 0-.4-.4c-.1-.1-.1-.1-.2-.1h-.2a2.09 2.09 0 0 1-.4-.6.19.19 0 0 0-.3 0c.1-.1.1-.1.1 0"/><path id="bzShape-57" data-name="Shape" class="bzcls-1" d="M24.7 7.6a.14.14 0 0 0 0 .2h.4a.1.1 0 0 0 .1-.1c.1-.1.2 0 .4-.1 0 .1 0 .1.1.1s0-.2-.1-.2-.1-.2-.2-.3h-.1c0 .2-.1.1-.3.2v.1-.1h-.2a.35.35 0 0 1-.1.2"/><path id="bzShape-58" data-name="Shape" class="bzcls-1" d="M22.4 3.7c-.1-.2-.3-.4-.2-.7a1.39 1.39 0 0 0 .9 0c.2-.1.5 0 .7-.1v-.2c-.3.1-.5-.2-.7-.1a3.18 3.18 0 0 1-.9.3c-.2.1-.9 0-.9.4.3 0 .7 0 .9.3 0 .1.1.1.2.1"/><path id="bzShape-59" data-name="Shape" class="bzcls-1" d="M23.4 5.2a.4.4 0 0 0 .4.2c0-.1 0-.1-.1-.2h-.3"/><path id="bzShape-60" data-name="Shape" class="bzcls-1" d="M23.1 5.7c-.1 0 0 .1.1.2 0-.1.1-.3-.1-.2"/><path id="bzShape-61" data-name="Shape" class="bzcls-1" d="M22.9 5.4c.1-.1 0-.2-.1-.2v.1l.1.1"/><path id="bzShape-62" data-name="Shape" class="bzcls-1" d="M23.8 6.5a.31.31 0 0 0 .1-.2h-.1a.14.14 0 0 0 0 .2"/><path id="bzShape-63" data-name="Shape" class="bzcls-1" d="M24.1 6.5v.1c.1.1.1 0 0-.1.1 0 0 .1 0 0"/><path id="bzShape-64" data-name="Shape" class="bzcls-1" d="M24 6.8l.1-.1c0-.1-.1-.1-.2 0s.1 0 .1.1"/><path id="bzShape-65" data-name="Shape" class="bzcls-1" d="M24.1 6.8c0 .1.1.2.2.1s.1-.1 0-.1z"/><path id="bzShape-66" data-name="Shape" class="bzcls-1" d="M24.6 7a.35.35 0 0 0-.1-.2s-.1.1 0 .1 0 .1.1.1"/><path id="bzShape-67" data-name="Shape" class="bzcls-1" d="M24.7 7.3h.1v-.2h-.2v.1l.1.1"/><path id="bzShape-68" data-name="Shape" class="bzcls-1" d="M24.5 7.5c.1-.1.1-.1 0-.2h-.1a.1.1 0 0 1-.1.1c.1.1.1.1.2.1"/><path id="bzShape-69" data-name="Shape" class="bzcls-1" d="M24.2 2.5c-.1-.1-.1-.1-.2-.1.1.1.1.2.2.1"/><path id="bzShape-70" data-name="Shape" class="bzcls-1" d="M27.6 5c.1.1.2 0 .2.1s.1.2.2.2.1 0 .1-.1 0-.4-.2-.4h-.5c-.1 0-.1.1-.1.2a.19.19 0 0 1 .3 0"/><path id="bzShape-71" data-name="Shape" class="bzcls-1" d="M31.7 10.2c-.1-.1-.1-.3-.2-.4s-.2-.1-.3-.2v-.2l-.1-.1c-.1-.2-.1-.3-.3-.3 0-.2-.1-.2-.3-.3v-.1a.1.1 0 0 0-.1-.1h-.1c-.1-.1-.2-.2-.2-.3s-.2-.2-.3-.3l-.1-.1c-.1 0-.2 0-.2-.1s-.2-.3-.3-.4 0-.4-.1-.7c0-.1-.1-.1-.2-.1a.1.1 0 0 1-.1-.1c-.1-.1 0-.3-.1-.4s-.3-.3-.4-.5a.37.37 0 0 0-.3-.1h-.1l-.1-.1c-.1-.1-.2-.2-.3-.2s-.4 0-.6-.1-.4 0-.5.2-.3.2-.5.2 0 .1 0 .2-.2.2-.1.2h.2a.1.1 0 0 1 .1.1c.1.1.2.2.2.3a.14.14 0 0 0 0 .2.37.37 0 0 1 .1.3c0 .1.1 0 .1 0a.25.25 0 0 1 .1.4v.3c.1.2.1.4.2.5l.1-.1c.1 0 .1-.1.2-.1.2-.2.4.2.5.3s0 .4.1.6a1.38 1.38 0 0 0 .3.4.31.31 0 0 0 .1.2l.1.1a.1.1 0 0 1 .1-.1h.1c.2.2.2.6.5.6a.1.1 0 0 0 .1.1c.1 0 .1-.1.2 0a.35.35 0 0 0 .1.2h.3c.1 0 .1.1.2.2l.1.1c.2.2.3.5.5.7s.2.2.3.1v-.1a.22.22 0 0 0 .2-.2l.3-.3c.1-.1.2-.1.3-.2.3 0 .2-.2.2-.2"/><path id="bzShape-72" data-name="Shape" class="bzcls-1" d="M27.5 10.3c0 .1.1.1.2.1s.1.2.2.2.1-.1.1-.2h.1c.1-.1 0-.3-.1-.4s-.1-.2-.3-.2-.1 0-.2.1 0 .2 0 .3v.1"/><path id="bzShape-73" data-name="Shape" class="bzcls-1" d="M28.2 10.7c-.1.2 0 .4 0 .6s-.2.1-.2.2a.14.14 0 0 0 0 .2c0 .1.2.1.3.2a1.17 1.17 0 0 1 .6.6.37.37 0 0 1 .1.3c.1.1.2.1.2.2s.1.1.1 0a.3.3 0 0 0 0-.4c-.1-.1-.1-.1-.1-.2a2.35 2.35 0 0 0-.2-.8l-.3-.3v-.1c0-.1.1-.1.1-.2s-.1-.2-.2-.3c-.2-.1-.3-.1-.4 0"/><path id="bzShape-74" data-name="Shape" class="bzcls-1" d="M29.7 12.1v-.2c0-.2-.2-.2-.3-.2h-.1v.2a2.93 2.93 0 0 1 .3 1c0 .1.3 0 .3-.1v-.2c0-.1-.1-.1-.1-.2s-.1-.2-.1-.3"/><path id="bzShape-75" data-name="Shape" class="bzcls-1" d="M29.3 11.2c-.1.1 0 .2 0 .3.1 0 .1 0 .1-.1s0-.1-.1-.2"/><path id="bzShape-76" data-name="Shape" class="bzcls-1" d="M29.3 11c0-.1 0-.1-.1-.1s-.1.1-.2.1 0 .1.1.2c.2 0 .3-.1.2-.2"/><path id="bzShape-77" data-name="Shape" class="bzcls-1" d="M28.8 10.5c.1.1 0 .2.1.2s.2.1.3 0 0-.1-.1-.1v-.1H29c-.1-.1.1-.1 0-.2v-.1h-.1v.1c-.1.1-.2.2-.1.2"/><path id="bzShape-78" data-name="Shape" class="bzcls-1" d="M28.7 9.9c-.1 0-.2 0-.2-.1h-.1s-.1.1 0 .1a.1.1 0 0 1 .1.1c0 .1.1 0 .1.1s.1.1.1 0V10s.1-.1 0-.1"/><path id="bzShape-79" data-name="Shape" class="bzcls-1" d="M21.6 14.5a.14.14 0 0 0 0-.2.1.1 0 0 0-.1.1c.1 0 .1 0 .1.1"/><path id="bzShape-80" data-name="Shape" class="bzcls-1" d="M29.4 13.2a.6.6 0 0 0-.4.1c-.2.1-.3.4-.4.6a.52.52 0 0 1-.4.2.1.1 0 0 1-.1-.1v-.2l.1-.1c.1-.1 0-.2 0-.3s-.3-.4-.5-.3-.3.3-.5.5c-.1-.1-.2-.2-.2-.3v-.1c.1 0 .2.2.2.1s0-.2-.1-.2-.1-.1-.2-.1-.1-.1-.2-.2 0-.3-.1-.3a.37.37 0 0 1-.3-.1h-.2v-.1c.1 0 .3 0 .2-.2s-.1-.1-.2-.1H26v.3a.37.37 0 0 1-.3.1h-.1c-.1 0-.2-.1-.3-.1s-.1.2-.2.2-.1 0-.2.1-.1.2 0 .3v.1a.1.1 0 0 1-.1-.1c0-.1-.1-.2-.1-.3s.1-.2.2-.3v-.2c-.1-.1-.1-.1-.2-.1s-.3.4-.5.3-.2-.2-.3-.2-.1-.1-.2 0a2.19 2.19 0 0 1-.5.3c-.1.1-.3.2-.3.4a.38.38 0 0 1-.6.1c-.1-.1-.2-.2-.3-.2s-.2.2-.3.2-.1 0-.2-.1v-.1l.6-.3c.1 0 .1-.1.1-.2V12a.68.68 0 0 0-.6.4.1.1 0 0 1-.1.1c-.2 0-.3.1-.5 0l-.1-.2c-.1.1-.1.2-.2.2l-.1.1c-.1.1.1.3 0 .4s-.2.1-.3.1v.2c0 .1.1 0 .1.1s.1.3.2.3.3 0 .5.1.2.1.3.2.1.1.1.2a.1.1 0 0 0 .1.1h.2c.1 0 0 .1.1.2a.76.76 0 0 0 .1.4s0 .2-.1.2a.1.1 0 0 0-.1.1v.3h.1c.1.1.1.2.2.3l.1.1a.1.1 0 0 0-.1.1.14.14 0 0 0 .2 0c.1 0 .1-.1.2-.1a.1.1 0 0 0 .1-.1.35.35 0 0 1 .1.2c-.1.1-.3 0-.4.1s-.1 0-.2.1a.1.1 0 0 0 .1.1c.2.1.1.4-.1.6v.2H22c-.2 0-.5-.1-.7 0s-.1.1-.1.2a.1.1 0 0 0-.1.1v.2c-.2.2-.2.5-.3.7a.1.1 0 0 0 .1.1c.1 0 .1-.1.2-.1s.1.2.1.2.2.1.2 0a.37.37 0 0 1 .1-.3c0-.1-.1-.2-.1-.3s0-.2.1-.2a.1.1 0 0 1 .1.1v.4a.14.14 0 0 1 0 .2.1.1 0 0 1-.1.1v.2c-.1.1-.1.1-.1.2-.2 0-.4-.1-.3-.3-.1 0-.1 0-.2.1v.3c-.1.1-.1.2-.2.3v.1c-.1.1-.2.2-.3.2-.1.1-.2 0-.2.1s.1.2.1.3 0 .1-.1.2h-.4a.37.37 0 0 1-.1.3c-.1.1 0 .2.1.2s.1.2.2.2.1.1.2.1a.22.22 0 0 0 .2-.2c0-.1.1 0 .2 0h.1a.14.14 0 0 0 0-.2l.4-.4c.1 0 .1-.1.2-.1s.1.1.2.1.1.1.2.1h.1c.1 0 .2.2.3.2a.37.37 0 0 0-.1-.3c-.1-.1-.2-.2-.3-.2v-.1c.1.1.1.1.2.1s.1.2.2.3.1.1.2.1a.37.37 0 0 0 .3-.1c0-.1 0-.1-.1-.1s0-.1.1-.2 0-.2 0-.3v-.1c.1-.1 0-.2 0-.4 0 .1.1.1.2.1a.22.22 0 0 0 .2-.2.19.19 0 0 1 .3.1c0 .1 0 .2-.1.2a.76.76 0 0 0-.5.2l-.1.1c-.1.1-.1.1-.1.2l-.1.1a.1.1 0 0 1 .1.1.37.37 0 0 0 .3-.1v-.2c.1 0 .1-.1.2-.1s.3.2.2.3h-.1c-.1.1-.2.3-.3.3s-.5.1-.7.2-.1.2-.2.2-.2.1-.3 0c0 .1-.2 0-.3 0a.31.31 0 0 0-.1-.2h-.1v-.1h-.8a.1.1 0 0 0-.1.1l-.1.1a.37.37 0 0 1-.3.1.37.37 0 0 0-.3.1c-.2 0-.3.2-.4.3a.37.37 0 0 1-.3.1v.1c-.2 0-.3.3-.4.5v.2c-.1.1-.1.3-.3.4v.1c.1.2.3.3.5.5a.1.1 0 0 0 .1.1c.1.1.1.2.2.4s.3.2.5.2a.35.35 0 0 1 .2.1c.2 0 .5.1.7 0 .3.1.7 0 1 .1.1 0 .1.1.1.2s.2.3.3.4a.6.6 0 0 0 .4.1.31.31 0 0 0 .1.2c0 .1 0 .1.1.2s.1.1.1.2-.1.2-.1.4v.2a2.65 2.65 0 0 0 .6.5s.1 0 0 .1c.1 0 .1.1.2.2s0 .1.1.2l.3.3a.6.6 0 0 0 .4.1.1.1 0 0 1 .1.1c.1 0 .3.1.4 0s.1-.2.2-.2a.6.6 0 0 1 .4-.1.1.1 0 0 0 .1-.1c0-.1.1-.1.1-.2s.2-.1.3-.1.3-.3.5-.4.4-.1.5-.2 0-.4 0-.6.1-.2.1-.3v-.5c0-.1-.1-.2-.1-.3s.1-.1.2-.1.1-.3.2-.4a.1.1 0 0 0 .1-.1c.1 0 0-.1 0-.2a.1.1 0 0 1-.1-.1 1.21 1.21 0 0 0-.5-.5.1.1 0 0 1-.1-.1v-.1c-.1 0 0-.1-.1-.1h.1c.1-.1.1-.3.2-.4a.1.1 0 0 0 .1-.1v-.3c-.1-.1 0-.3 0-.4a2.2 2.2 0 0 0-.1-.8c0-.1-.1-.1-.2-.1a.1.1 0 0 1-.1.1.31.31 0 0 1-.1.2c0 .1-.2.1-.2.2s0 .1-.1.2l-.1.1c.4-.3.3-.3.3-.2h-.3a14.24 14.24 0 0 0-1.6-.5h.3c.1 0 0-.1 0-.1s.2.1.3.2.5.1.7.2.3.2.5.2.3-.1.4-.1v-.1c.1-.1.2-.2.2-.3v-.3l.1-.1v-.4a.1.1 0 0 0 .1-.1v-.3a.75.75 0 0 0-.1-.5c0-.1-.1-.1-.2-.1a.1.1 0 0 1-.1.1c-.1 0-.2 0-.2.1a.1.1 0 0 0-.1.1.52.52 0 0 1-.4.2c-.1 0-.2 0-.2-.1s.2-.2.4-.2l.1-.1a.22.22 0 0 1 .2-.2h.2c.1 0 .1-.1.2-.1a.31.31 0 0 1 .1-.2c0-.1.1-.1.2-.2s.1-.4.2-.6 0 .1.1.2a.19.19 0 0 0 .3 0c.1-.1 0-.2.1-.2h.1c.1 0 .1.1.2.1a.35.35 0 0 1 .2-.1h.3c.2-.1.6 0 .6-.2a.86.86 0 0 0-.6-.7c-.2-.1-.1-.4-.3-.6-.1 0 0-.1-.1-.2l-.1-.1-.1-.1v-.5c0-.1.1-.1.2-.1s.2-.1.2-.2v-.4l.1-.1c.2 0 .5.1.7-.1.1 0 .1-.1.1-.2a1 1 0 0 0 .4-.8c-.1.1 0 .1 0-.1.1.1.1 0 0 0m-4.5 5.4c-.1.1-.1.1-.2 0s-.1-.1-.1-.2-.1 0-.1.1h-.2c0-.1-.1-.1-.1-.2s0-.2.1-.2.1 0 .1.1v.1c.1.1.1 0 .2 0h.3c0 .1.1.2 0 .3"/><path id="bzShape-81" data-name="Shape" class="bzcls-1" d="M15.6 36c1.3-1.9 5.2-3.9 9-3.9s8 2.2 9.6 1a8.38 8.38 0 0 1-5.1 1.4c-3.4 0-4.7-1.7-7-1.7s-4.8 1.9-5.9 3.5z"/><path id="bzShape-82" data-name="Shape" class="bzcls-1" d="M27.7 31.8a5.34 5.34 0 0 0 1.7-1.9 14.44 14.44 0 0 1 3.7-4.4s-1.7 5.5-3.5 5.7c0 0-.3.2.2.1s2.8-.9 3.6-1.1a8.58 8.58 0 0 0 3.3-1.1 1.48 1.48 0 0 1 .8-.4s-2.2 3.7-6.2 3.7a17.1 17.1 0 0 1-3.6-.6"/><path id="bzShape-83" data-name="Shape" class="bzcls-1" d="M32.4 29.9a3.92 3.92 0 0 0 .5-1.7 14.64 14.64 0 0 1 2.7-6.3s.3 4.3-1.9 7c0 0-.1.4.1.1a22.93 22.93 0 0 1 4.6-3.9s1.5-1.3 1.6-1.7c0-.1-1.2 6.1-7.6 6.5"/><path id="bzShape-84" data-name="Shape" class="bzcls-1" d="M36.1 25.8a5.62 5.62 0 0 0 .2-1.3c0-.6-.3-2.6-.3-3.5a7.53 7.53 0 0 1 .8-3.7 4.5 4.5 0 0 0 .2 1.4 12.29 12.29 0 0 1 .5 2.5 10.27 10.27 0 0 1-.4 2.5 2.13 2.13 0 0 0 .6-.8 12.81 12.81 0 0 1 2.2-2.8 5.62 5.62 0 0 0 1.4-2.1 6.08 6.08 0 0 1-1.2 4.1c-1.5 2.1-2.1 1.8-2.9 2.6a11.41 11.41 0 0 1-1.1 1.1"/><path id="bzShape-85" data-name="Shape" class="bzcls-1" d="M38.4 20.9a3.87 3.87 0 0 0-.3-1.6 10.5 10.5 0 0 1-1.3-5.9s.2-.2.6 1 1 1.6 1.2 2.8a12 12 0 0 1 .2 1.7s.1.2.1 0a9 9 0 0 1 .8-3.2c.7-1.5 1.6-2.9 1.5-3.9 0 0 .4 0 .3 1.6.1 1.6-.3 4.4-3.1 7.5"/><path id="bzShape-86" data-name="Shape" class="bzcls-1" d="M39.2 16.1a12 12 0 0 0-.8-1.5c-.3-.4-2.7-3.7-2.9-5.3 0 0 .2-.1.4.3a12.94 12.94 0 0 0 1.5 1.7 5 5 0 0 1 1.5 2.8s.1.1-.1-2.1.7-3.7-.1-5.3c0 0 1.1.2 1.7 4.8a9.68 9.68 0 0 1-.9 3.6c.1-.1-.2 1-.3 1"/><path id="bzShape-87" data-name="Shape" class="bzcls-1" d="M38.3 11a9.94 9.94 0 0 0-1.6-1.3 9.58 9.58 0 0 1-3.3-4.3s.1-.2.8.7c.5.7 1.1.4 2.7 2.4 0 0 .2.5.3.4s-.1-.5-.1-.5-.1-1.2-.1-1.6a15.83 15.83 0 0 0-.9-3.1 5.82 5.82 0 0 1 2.5 4.7c-.1 0-.2 2.5-.3 2.6"/><path id="bzShape-88" data-name="Shape" class="bzcls-1" d="M36.5 7.3s.1-3-3.8-4.6c0 0 1.4 2.8 2.4 3.5a11.57 11.57 0 0 1 1.4 1.1"/><path id="bzShape-89" data-name="Shape" class="bzcls-1" d="M26.3 36c-1.3-1.9-5.2-3.9-9-3.9s-8 2.2-9.6 1a8.38 8.38 0 0 0 5.1 1.4c3.4 0 4.7-1.7 7-1.7s4.8 1.9 5.9 3.5z"/><path id="bzShape-90" data-name="Shape" class="bzcls-1" d="M14.2 31.8a5.34 5.34 0 0 1-1.7-1.9 14.44 14.44 0 0 0-3.7-4.4s1.7 5.5 3.5 5.7c0 0 .3.2-.2.1s-2.8-.9-3.6-1.1a8.58 8.58 0 0 1-3.3-1.1 1.24 1.24 0 0 0-.8-.4s2.2 3.7 6.2 3.7a17.1 17.1 0 0 0 3.6-.6"/><path id="bzShape-91" data-name="Shape" class="bzcls-1" d="M9.5 29.9a3.92 3.92 0 0 1-.5-1.7 14.64 14.64 0 0 0-2.7-6.3s-.3 4.3 1.9 7c0 0 .1.4-.1.1a22.93 22.93 0 0 0-4.6-3.9S2 23.8 1.9 23.4c0-.1 1.2 6.1 7.6 6.5"/><path id="bzShape-92" data-name="Shape" class="bzcls-1" d="M5.8 25.8a5.62 5.62 0 0 1-.2-1.3c0-.6.3-2.6.3-3.5a7.53 7.53 0 0 0-.8-3.7 4.5 4.5 0 0 1-.2 1.4 12.29 12.29 0 0 0-.5 2.5 10.27 10.27 0 0 0 .4 2.5 2.13 2.13 0 0 1-.6-.8A12.81 12.81 0 0 0 2 20.1 5.62 5.62 0 0 1 .6 18a6.08 6.08 0 0 0 1.2 4.1c1.5 2.1 2.1 1.8 2.9 2.6.1 0 1 1.1 1.1 1.1"/><path id="bzShape-93" data-name="Shape" class="bzcls-1" d="M3.5 20.9a6.93 6.93 0 0 1 .3-1.6 10.5 10.5 0 0 0 1.3-5.9s-.2-.2-.6 1-1 1.6-1.2 2.8a8.18 8.18 0 0 0-.3 1.7s-.1.2-.1 0a9 9 0 0 0-.8-3.2C1.4 14.2.5 12.8.6 11.8c0 0-.4 0-.3 1.6a11 11 0 0 0 3.2 7.5"/><path id="bzShape-94" data-name="Shape" class="bzcls-1" d="M2.7 16.1a12 12 0 0 1 .8-1.5c.3-.4 2.7-3.7 2.9-5.3 0 0-.2-.1-.4.3a12.94 12.94 0 0 1-1.5 1.7A5 5 0 0 0 3 14.1s-.1.1.1-2.1-.7-3.7.1-5.3c0 0-1.1.2-1.7 4.8a9.68 9.68 0 0 0 .9 3.6c-.1-.1.2 1 .3 1"/><path id="bzShape-95" data-name="Shape" class="bzcls-1" d="M3.6 11a9.94 9.94 0 0 1 1.6-1.3 9.58 9.58 0 0 0 3.3-4.3s-.1-.2-.8.7c-.5.7-1.1.4-2.7 2.4 0 0-.2.5-.3.4s.1-.5.1-.5a13.88 13.88 0 0 0 .3-1.7A15.83 15.83 0 0 1 6 3.6a5.82 5.82 0 0 0-2.5 4.7 12.21 12.21 0 0 0 .1 2.7"/><path id="bzShape-96" data-name="Shape" class="bzcls-1" d="M5.4 7.3s-.1-3 3.8-4.6c0 0-1.4 2.8-2.4 3.5a11.57 11.57 0 0 0-1.4 1.1"/></g></g></g></g></symbol><symbol viewBox="0 0 48 48" id="cd-icon--outofsite" xmlns="http://www.w3.org/2000/svg"><path d="M35 20.65V42H6V18h16.09l9-9H4.2A2.2 2.2 0 0 0 2 11.2v32.6A2.2 2.2 0 0 0 4.2 46h32.6a2.2 2.2 0 0 0 2.2-2.2V16.65zM12.5 12a1.5 1.5 0 1 1-1.5 1.5 1.5 1.5 0 0 1 1.5-1.5zm-5 0A1.5 1.5 0 1 1 6 13.5 1.5 1.5 0 0 1 7.5 12z"/><path d="M44 2H23a2 2 0 0 0 0 4h16L16.51 28.52a2.1 2.1 0 0 0 3 3L42 9v16a2 2 0 0 0 4 0V4a2 2 0 0 0-2-2z"/></symbol><symbol viewBox="0 0 48 48" id="cd-icon--previous" xmlns="http://www.w3.org/2000/svg"><path d="M45 21H10.24l8.88-8.88a3 3 0 0 0-4.24-4.24l-14 14a3 3 0 0 0 0 4.24l14 14a3 3 0 0 0 4.24-4.24L10.24 27H45a3 3 0 0 0 0-6z"/></symbol><symbol viewBox="0 0 48 48" id="cd-icon--print" xmlns="http://www.w3.org/2000/svg"><path d="M12 4h25a1 1 0 0 1 1 1v3H11V5a1 1 0 0 1 1-1zM37 22H12a1 1 0 0 0-1 1v20a1 1 0 0 0 1 1h25a1 1 0 0 0 1-1V23a1 1 0 0 0-1-1zm-3 17H15a1 1 0 0 1 0-2h19a1 1 0 0 1 0 2zm0-6H15a1 1 0 0 1 0-2h19a1 1 0 0 1 0 2z"/><path d="M43.36 10H4.64A1.65 1.65 0 0 0 3 11.64v14.67A1.65 1.65 0 0 0 4.64 28H9v-5a3 3 0 0 1 3-3h25a3 3 0 0 1 3 3v5h3.36A1.65 1.65 0 0 0 45 26.31V11.64A1.65 1.65 0 0 0 43.36 10zM32 17a2 2 0 1 1 2-2 2 2 0 0 1-2 2zm6 0a2 2 0 1 1 2-2 2 2 0 0 1-2 2z"/></symbol><symbol viewBox="0 0 48 48" id="cd-icon--remove" xmlns="http://www.w3.org/2000/svg"><path d="M4 28a4 4 0 0 1 0-8h40a4 4 0 0 1 0 8H4z"/></symbol><symbol viewBox="0 0 48 48" id="cd-icon--save" xmlns="http://www.w3.org/2000/svg"><path d="M40 3h-4v10a1 1 0 0 1-1 1H9a1 1 0 0 1-1-1V3H5a2 2 0 0 0-2 2v38a2 2 0 0 0 2 2h38a2 2 0 0 0 2-2V8zm0 36a1 1 0 0 1-1 1H9a1 1 0 0 1-1-1V21a1 1 0 0 1 1-1h30a1 1 0 0 1 1 1z"/><path d="M10 3h24v9H10z"/></symbol><symbol viewBox="0 0 48 48" id="cd-icon--search" xmlns="http://www.w3.org/2000/svg"><path d="M46.829 41.172L38.4 32.744a21.018 21.018 0 1 0-5.657 5.657l8.427 8.427a4 4 0 0 0 5.658-5.656zM8 21a13 13 0 1 1 22.325 9.046c-.05.045-.106.078-.154.126s-.08.104-.125.154A12.992 12.992 0 0 1 8 21z"/></symbol><symbol viewBox="0 0 48 48" id="cd-icon--see" xmlns="http://www.w3.org/2000/svg"><path d="M47.38 21.8C41.92 12.78 33.83 9 24 9S6.08 12.78.62 21.8a4.22 4.22 0 0 0 0 4.39C6.08 35.22 14.17 39 24 39s17.92-3.78 23.38-12.8a4.23 4.23 0 0 0 0-4.4zM24 32a8 8 0 1 1 8-8 8 8 0 0 1-8 8z"/></symbol><symbol viewBox="0 0 48 48" id="cd-icon--selected" xmlns="http://www.w3.org/2000/svg"><path d="M18.5 39.75a4 4 0 0 1-2.83-1.17l-12.5-12.5a4 4 0 0 1 5.66-5.66l9.67 9.67L39.17 9.42a4 4 0 0 1 5.66 5.66l-23.5 23.5a4 4 0 0 1-2.83 1.17z"/></symbol><symbol viewBox="0 0 48 48" id="cd-icon--selected--highlighted" xmlns="http://www.w3.org/2000/svg"><path fill="#80CBFF" d="M18.5 39.75a4 4 0 0 1-2.83-1.17l-12.5-12.5a4 4 0 0 1 5.66-5.66l9.67 9.67L39.17 9.42a4 4 0 0 1 5.66 5.66l-23.5 23.5a4 4 0 0 1-2.83 1.17z"/></symbol><symbol viewBox="0 0 48 48" id="cd-icon--settings" xmlns="http://www.w3.org/2000/svg"><path d="M45 21h-1.25a19.87 19.87 0 0 0-3.67-8.84l.89-.89A3 3 0 1 0 36.73 7l-.89.89A19.87 19.87 0 0 0 27 4.25V3a3 3 0 0 0-6 0v1.25a19.87 19.87 0 0 0-8.84 3.67L11.27 7A3 3 0 1 0 7 11.27l.89.89A19.87 19.87 0 0 0 4.25 21H3a3 3 0 0 0 0 6h1.25a19.87 19.87 0 0 0 3.67 8.84l-.92.89A3 3 0 0 0 11.27 41l.89-.89A19.87 19.87 0 0 0 21 43.75V45a3 3 0 0 0 6 0v-1.25a19.87 19.87 0 0 0 8.84-3.67l.89.89A3 3 0 1 0 41 36.73l-.89-.89A19.87 19.87 0 0 0 43.75 27H45a3 3 0 0 0 0-6zM24 38a14 14 0 1 1 14-14 14 14 0 0 1-14 14z"/></symbol><symbol viewBox="0 0 48 48" id="cd-icon--share" xmlns="http://www.w3.org/2000/svg"><path d="M19 36H7V12h12a3 3 0 0 0 0-6H6a5 5 0 0 0-5 5v26a5 5 0 0 0 5 5h13a3 3 0 0 0 0-6z"/><path d="M46.12 21.88l-13-13a3 3 0 0 0-4.24 4.24L36.76 21H13a3 3 0 0 0 0 6h23.76l-7.88 7.88a3 3 0 1 0 4.24 4.24l13-13a3 3 0 0 0 0-4.24z"/></symbol><symbol viewBox="0 0 48 48" id="cd-icon--sm-fb-def" xmlns="http://www.w3.org/2000/svg"><path d="M24 5A19 19 0 1 1 5 24 19 19 0 0 1 24 5m0-3a22 22 0 1 0 22 22A22 22 0 0 0 24 2z"/><path d="M29.16 13h-3.52c-2.09 0-4.41.88-4.41 3.9v3.2h-2.41v3.84h2.49V35h4.57V23.87h3l.27-3.78h-3.34v-2.17c0-1.2 1.24-1.13 1.32-1.13h2V13z"/></symbol><symbol viewBox="0 0 48 48" id="cd-icon--sm-fb-full" xmlns="http://www.w3.org/2000/svg"><path d="M24 2a22 22 0 1 0 22 22A22 22 0 0 0 24 2zm4.9 21.87h-3V35h-4.59V23.94h-2.49V20.1h2.41v-3.2c0-3 2.32-3.9 4.41-3.9h3.52v3.79h-2c-.07 0-1.32-.07-1.32 1.13v2.17h3.37z"/></symbol><symbol viewBox="0 0 48 48" id="cd-icon--sm-gh-def" xmlns="http://www.w3.org/2000/svg"><path d="M14.46 26.8a.16.16 0 0 1 0-.26.71.71 0 0 1 .66-.2 1.15 1.15 0 0 1 .46.13 3 3 0 0 1 1 .89 6.7 6.7 0 0 0 .89 1 2.45 2.45 0 0 0 3.23.2 2 2 0 0 1 .43-.79 2 2 0 0 1 .56-.46q.26-.13.92-.39a12.25 12.25 0 0 1-3.52-.76A6 6 0 0 1 17 24.69a5.52 5.52 0 0 1-1.28-3.09 7.92 7.92 0 0 1 .3-3.49 5.8 5.8 0 0 1 1.12-1.78 5.89 5.89 0 0 1 .2-3.75A6.84 6.84 0 0 1 21.1 14a14.42 14.42 0 0 1 6.85 0 12.37 12.37 0 0 1 1.42-.82 5.79 5.79 0 0 1 2.4-.56 7.1 7.1 0 0 1 .36 1.71 5.66 5.66 0 0 1-.1 1.84 6.07 6.07 0 0 1 1.58 4.21 7.48 7.48 0 0 1-.72 3.49 5.56 5.56 0 0 1-2.57 2.3 9.15 9.15 0 0 1-3.29.72 4.36 4.36 0 0 1 1.35 1 2.9 2.9 0 0 1 .56 1.55v2.07l.07 2a2.47 2.47 0 0 0 .92.89.22.22 0 0 1 .13.3q-.07.2-.53.2a2.19 2.19 0 0 1-1.78-.9 1.51 1.51 0 0 1-.2-.79v-3.12a1 1 0 0 0-.26-.76 1.28 1.28 0 0 0-.53-.3v4.15a2.6 2.6 0 0 0 .24 1.45 1.55 1.55 0 0 1 .33.66s0 .08-.1.1a1.27 1.27 0 0 1-.56-.1 1.63 1.63 0 0 1-1.18-.89 3.4 3.4 0 0 1-.33-1.48v-4.08h-.86v4.08a3.62 3.62 0 0 1-.3 1.51 1.85 1.85 0 0 1-1.71 1q-.2-.07-.2-.13a5.58 5.58 0 0 0 .39-.66 3.05 3.05 0 0 0 .16-.53 3.82 3.82 0 0 0 .1-.92V29a1.07 1.07 0 0 0-.49.3 1 1 0 0 0-.23.76v3.16a1.51 1.51 0 0 1-.2.79 2.08 2.08 0 0 1-1.78.79q-.46 0-.53-.2a.18.18 0 0 1 0-.23 2 2 0 0 1 .3-.23 2 2 0 0 0 .26-.2 1.2 1.2 0 0 0 .39-.53 2.5 2.5 0 0 0 .1-1.38 6.64 6.64 0 0 1 0-1.45 3.8 3.8 0 0 1-3.47-.58A6.43 6.43 0 0 1 16 28.51a6.64 6.64 0 0 0-1.58-1.71z"/><path d="M24 5A19 19 0 1 1 5 24 19 19 0 0 1 24 5m0-3a22 22 0 1 0 22 22A22 22 0 0 0 24 2z"/></symbol><symbol viewBox="0 0 48 48" id="cd-icon--sm-gh-full" xmlns="http://www.w3.org/2000/svg"><path d="M24 2a22 22 0 1 0 22 22A22 22 0 0 0 24 2zm8.89 21.84a5.56 5.56 0 0 1-2.57 2.3 9.15 9.15 0 0 1-3.29.72 4.36 4.36 0 0 1 1.35 1 2.9 2.9 0 0 1 .56 1.55v2.07l.07 2a2.47 2.47 0 0 0 .92.89.22.22 0 0 1 .13.3q-.07.2-.53.2a2.19 2.19 0 0 1-1.78-.87 1.51 1.51 0 0 1-.2-.79v-3.12a1 1 0 0 0-.26-.76 1.28 1.28 0 0 0-.53-.3v4.15a2.6 2.6 0 0 0 .24 1.45 1.55 1.55 0 0 1 .33.66s0 .08-.1.1a1.27 1.27 0 0 1-.56-.1 1.63 1.63 0 0 1-1.18-.89 3.4 3.4 0 0 1-.33-1.48v-4.08h-.86v4.08a3.62 3.62 0 0 1-.3 1.51 1.85 1.85 0 0 1-1.71 1q-.2-.07-.2-.13a5.56 5.56 0 0 0 .39-.66 3 3 0 0 0 .16-.53 3.82 3.82 0 0 0 .1-.92V29a1.07 1.07 0 0 0-.49.3 1 1 0 0 0-.23.76v3.16a1.51 1.51 0 0 1-.2.79 2.08 2.08 0 0 1-1.78.79q-.46 0-.53-.2a.18.18 0 0 1 0-.23 2 2 0 0 1 .3-.23 2 2 0 0 0 .26-.2 1.2 1.2 0 0 0 .39-.53 2.5 2.5 0 0 0 .1-1.38 6.64 6.64 0 0 1 0-1.45 3.8 3.8 0 0 1-3.47-.58A6.43 6.43 0 0 1 16 28.51a6.64 6.64 0 0 0-1.58-1.71.16.16 0 0 1 0-.26.71.71 0 0 1 .66-.2 1.14 1.14 0 0 1 .46.13 3 3 0 0 1 1 .89 6.69 6.69 0 0 0 .89 1 2.45 2.45 0 0 0 3.23.2 2.12 2.12 0 0 1 1-1.25q.26-.13.92-.4a12.25 12.25 0 0 1-3.52-.76A6 6 0 0 1 17 24.69a5.52 5.52 0 0 1-1.28-3.09 7.92 7.92 0 0 1 .3-3.49 5.79 5.79 0 0 1 1.12-1.78 5.89 5.89 0 0 1 .2-3.75A6.83 6.83 0 0 1 21.1 14a14.42 14.42 0 0 1 6.85 0 12.37 12.37 0 0 1 1.42-.82 5.79 5.79 0 0 1 2.4-.56 7.1 7.1 0 0 1 .36 1.71 5.66 5.66 0 0 1-.1 1.84 6.06 6.06 0 0 1 1.58 4.21 7.48 7.48 0 0 1-.72 3.46z"/></symbol><symbol viewBox="0 0 48 48" id="cd-icon--sm-ig-def" xmlns="http://www.w3.org/2000/svg"><path d="M24 2a22 22 0 1 0 22 22A22 22 0 0 0 24 2zm0 41a19 19 0 1 1 19-19 19 19 0 0 1-19 19z"/><path d="M24 18.09A5.91 5.91 0 1 0 29.91 24 5.9 5.9 0 0 0 24 18.09zm0 9.74A3.83 3.83 0 1 1 27.83 24 3.83 3.83 0 0 1 24 27.83z"/><circle cx="30.14" cy="17.86" r="1.38"/><path d="M34.9 16.47a5.88 5.88 0 0 0-3.36-3.36 8.43 8.43 0 0 0-2.79-.53c-1.23-.06-1.62-.07-4.74-.07s-3.52 0-4.74.07a8.44 8.44 0 0 0-2.79.53 5.88 5.88 0 0 0-3.36 3.36 8.44 8.44 0 0 0-.53 2.79c-.06 1.23-.07 1.62-.07 4.74s0 3.52.07 4.74a8.44 8.44 0 0 0 .53 2.79 5.88 5.88 0 0 0 3.36 3.36 8.44 8.44 0 0 0 2.79.53c1.23.06 1.62.07 4.74.07s3.52 0 4.74-.07a8.44 8.44 0 0 0 2.79-.53 5.88 5.88 0 0 0 3.36-3.36 8.41 8.41 0 0 0 .53-2.79c.06-1.23.07-1.62.07-4.74s0-3.52-.07-4.74a8.44 8.44 0 0 0-.53-2.79zm-1.54 12.18a6.38 6.38 0 0 1-.4 2.14A3.81 3.81 0 0 1 30.78 33a6.35 6.35 0 0 1-2.14.4c-1.21.06-1.58.07-4.65.07s-3.43 0-4.65-.07a6.35 6.35 0 0 1-2.14-.4 3.81 3.81 0 0 1-2.2-2.22 6.35 6.35 0 0 1-.4-2.14c-.06-1.21-.07-1.58-.07-4.65s0-3.43.07-4.65a6.38 6.38 0 0 1 .4-2.14 3.81 3.81 0 0 1 2.22-2.2 6.35 6.35 0 0 1 2.14-.4c1.21-.06 1.58-.07 4.65-.07s3.43 0 4.65.07a6.38 6.38 0 0 1 2.14.4 3.81 3.81 0 0 1 2.2 2.22 6.35 6.35 0 0 1 .4 2.14c.06 1.21.07 1.58.07 4.65s-.05 3.42-.11 4.64z"/></symbol><symbol viewBox="0 0 48 48" id="cd-icon--sm-ig-full" xmlns="http://www.w3.org/2000/svg"><circle cx="24" cy="24" r="3.83"/><path d="M33 17.22A3.81 3.81 0 0 0 30.78 15a6.38 6.38 0 0 0-2.14-.4c-1.21-.05-1.58-.07-4.65-.07s-3.43 0-4.65.07a6.35 6.35 0 0 0-2.14.4 3.81 3.81 0 0 0-2.2 2.22 6.38 6.38 0 0 0-.4 2.14c-.05 1.21-.07 1.58-.07 4.65s0 3.44.07 4.65a6.36 6.36 0 0 0 .4 2.14 3.81 3.81 0 0 0 2.22 2.2 6.35 6.35 0 0 0 2.14.4c1.21.06 1.58.07 4.65.07s3.44 0 4.65-.07a6.35 6.35 0 0 0 2.14-.4 3.81 3.81 0 0 0 2.2-2.22 6.38 6.38 0 0 0 .4-2.14c.06-1.21.07-1.58.07-4.65s0-3.43-.07-4.65a6.35 6.35 0 0 0-.4-2.12zm-9 12.69A5.91 5.91 0 1 1 29.91 24 5.9 5.9 0 0 1 24 29.91zm6.14-10.66a1.38 1.38 0 1 1 1.38-1.38 1.38 1.38 0 0 1-1.38 1.37z"/><path d="M24 2a22 22 0 1 0 22 22A22 22 0 0 0 24 2zm11.43 26.74a8.41 8.41 0 0 1-.53 2.79 5.88 5.88 0 0 1-3.36 3.36 8.44 8.44 0 0 1-2.79.53c-1.23.06-1.62.07-4.74.07s-3.51 0-4.74-.07a8.44 8.44 0 0 1-2.79-.53 5.88 5.88 0 0 1-3.36-3.36 8.44 8.44 0 0 1-.53-2.79c-.06-1.23-.07-1.62-.07-4.74s0-3.52.07-4.74a8.44 8.44 0 0 1 .53-2.79 5.88 5.88 0 0 1 3.36-3.36 8.44 8.44 0 0 1 2.79-.53c1.23-.06 1.62-.07 4.74-.07s3.51 0 4.74.07a8.43 8.43 0 0 1 2.79.53 5.88 5.88 0 0 1 3.36 3.36 8.44 8.44 0 0 1 .53 2.79c.06 1.23.07 1.62.07 4.74s-.01 3.51-.07 4.74z"/></symbol><symbol viewBox="0 0 48 48" id="cd-icon--sm-ln-def" xmlns="http://www.w3.org/2000/svg"><path d="M24 5A19 19 0 1 1 5 24 19 19 0 0 1 24 5m0-3a22 22 0 1 0 22 22A22 22 0 0 0 24 2z"/><ellipse cx="16.07" cy="14.58" rx="2.56" ry="2.58"/><path d="M13.92 19h4.33v14h-4.33zM29.4 18.57a4.88 4.88 0 0 0-4.22 2.31V19H21v14h4.16v-7.35c0-2 .91-3.14 2.64-3.14s2.36 1.13 2.36 3.14V33h4.31v-8.86c.02-3.75-2.1-5.57-5.07-5.57z"/></symbol><symbol viewBox="0 0 48 48" id="cd-icon--sm-ln-full" xmlns="http://www.w3.org/2000/svg"><path d="M24 2a22 22 0 1 0 22 22A22 22 0 0 0 24 2zm-5.74 31h-4.34V19h4.33zm-2.19-15.83a2.58 2.58 0 1 1 2.56-2.58 2.57 2.57 0 0 1-2.56 2.58zM34.49 33h-4.31v-7.35c0-2-.77-3.14-2.36-3.14s-2.64 1.17-2.64 3.14V33H21V19h4.16v1.89a4.88 4.88 0 0 1 4.22-2.31c3 0 5.09 1.81 5.09 5.56z"/></symbol><symbol viewBox="0 0 48 48" id="cd-icon--sm-rss-def" xmlns="http://www.w3.org/2000/svg"><path d="M24 5A19 19 0 1 1 5 24 19 19 0 0 1 24 5m0-3a22 22 0 1 0 22 22A22 22 0 0 0 24 2z"/><path d="M20.7 31.18a2.85 2.85 0 1 1-2.85-2.81 2.84 2.84 0 0 1 2.85 2.81zM37 34a22 22 0 0 0-22-22v5a17.49 17.49 0 0 1 14.92 8.2 16.65 16.65 0 0 1 2.49 8.8H37zm-7.78 0A14 14 0 0 0 24 23.13 14.27 14.27 0 0 0 15 20v4.2a9.94 9.94 0 0 1 8.67 5 9.79 9.79 0 0 1 1.25 4.8h4.3z"/></symbol><symbol viewBox="0 0 48 48" id="cd-icon--sm-rss-full" xmlns="http://www.w3.org/2000/svg"><path d="M24 2a22 22 0 1 0 22 22A22 22 0 0 0 24 2zm-6.15 32a2.81 2.81 0 1 1 2.85-2.81A2.84 2.84 0 0 1 17.85 34zm11.37 0h-4.3a9.79 9.79 0 0 0-1.25-4.78 9.94 9.94 0 0 0-8.67-5V20a14.27 14.27 0 0 1 9 3.15A14 14 0 0 1 29.22 34zM37 34h-4.59a16.65 16.65 0 0 0-2.49-8.72A17.49 17.49 0 0 0 15 17.06V12a22 22 0 0 1 22 22z"/></symbol><symbol viewBox="0 0 48 48" id="cd-icon--sm-tt-def" xmlns="http://www.w3.org/2000/svg"><path d="M24 5A19 19 0 1 1 5 24 19 19 0 0 1 24 5m0-3a22 22 0 1 0 22 22A22 22 0 0 0 24 2z"/><path d="M36 16.56a9.83 9.83 0 0 1-2.83.78 4.94 4.94 0 0 0 2.16-2.72 9.84 9.84 0 0 1-3.13 1.19 4.93 4.93 0 0 0-8.52 3.37 5 5 0 0 0 .13 1.12 14 14 0 0 1-10.15-5.14 4.93 4.93 0 0 0 1.52 6.57 4.9 4.9 0 0 1-2.18-.62v.06A4.93 4.93 0 0 0 16.91 26a4.9 4.9 0 0 1-1.3.17 5 5 0 0 1-.93-.09 4.93 4.93 0 0 0 4.6 3.42 9.91 9.91 0 0 1-7.29 2 14 14 0 0 0 21.57-11.76v-.64A10 10 0 0 0 36 16.56z"/></symbol><symbol viewBox="0 0 48 48" id="cd-icon--sm-tt-full" xmlns="http://www.w3.org/2000/svg"><path d="M24 2a22 22 0 1 0 22 22A22 22 0 0 0 24 2zm9.54 17.11v.64A14 14 0 0 1 12 31.54a9.92 9.92 0 0 0 7.29-2 4.93 4.93 0 0 1-4.6-3.42 5 5 0 0 0 .93.09 4.9 4.9 0 0 0 1.3-.17A4.93 4.93 0 0 1 13 21.17v-.06a4.9 4.9 0 0 0 2.23.62 4.93 4.93 0 0 1-1.52-6.57 14 14 0 0 0 10.15 5.14 5 5 0 0 1-.13-1.12 4.93 4.93 0 0 1 8.52-3.37 9.83 9.83 0 0 0 3.13-1.19 4.94 4.94 0 0 1-2.16 2.72 9.83 9.83 0 0 0 2.78-.78 10 10 0 0 1-2.46 2.55z"/></symbol><symbol viewBox="0 0 48 48" id="cd-icon--sm-yt-def" xmlns="http://www.w3.org/2000/svg"><path d="M32.58 16.83c-1.72-.45-8.59-.45-8.59-.45s-6.75 0-8.46.42a3 3 0 0 0-2.11 2A26.77 26.77 0 0 0 13 24a26.77 26.77 0 0 0 .42 5.24 3 3 0 0 0 2.11 2c1.72.46 8.46.42 8.46.42s6.75 0 8.46-.42a3 3 0 0 0 2.08-2A27.91 27.91 0 0 0 35 24a28.42 28.42 0 0 0-.47-5.24 2.74 2.74 0 0 0-1.95-1.93zM21.26 27.38v-6.76L26.74 24z"/><path d="M24 2a22 22 0 1 0 22 22A22 22 0 0 0 24 2zm0 41a19 19 0 1 1 19-19 19 19 0 0 1-19 19z"/></symbol><symbol viewBox="0 0 48 48" id="cd-icon--sm-yt-full" xmlns="http://www.w3.org/2000/svg"><path d="M24 2a22 22 0 1 0 22 22A22 22 0 0 0 24 2zm10.54 27.24a3 3 0 0 1-2.08 2c-1.72.45-8.46.42-8.46.42s-6.75 0-8.46-.42a3 3 0 0 1-2.11-2A26.77 26.77 0 0 1 13 24a26.77 26.77 0 0 1 .42-5.24 3 3 0 0 1 2.11-2c1.72-.45 8.46-.42 8.46-.42s6.87 0 8.59.45a2.74 2.74 0 0 1 1.94 1.93A28.42 28.42 0 0 1 35 24a27.91 27.91 0 0 1-.46 5.24z"/><path d="M21.25 27.38l5.5-3.38-5.5-3.38v6.76z"/></symbol><symbol viewBox="0 0 48 48" id="cd-icon--trending" xmlns="http://www.w3.org/2000/svg"><path d="M47.88 16.18l-4-14a3 3 0 0 0-3.7-2.07l-14 4a3 3 0 1 0 1.65 5.77l5.4-1.54-10.14 18.09-4.26-4.26a4 4 0 0 0-6.21.69l-12 19a4 4 0 1 0 6.76 4.27l9.33-14.77 4.46 4.46a4 4 0 0 0 6.32-.82l12.92-23.13 1.7 6a3 3 0 0 0 5.77-1.65z"/></symbol><symbol viewBox="0 0 48 48" id="cd-icon--upload" xmlns="http://www.w3.org/2000/svg"><path d="M40.12 14.88l-14-14a3 3 0 0 0-4.24 0l-14 14a3 3 0 0 0 4.24 4.24L21 10.24V36a3 3 0 0 0 6 0V10.24l8.88 8.88a3 3 0 0 0 4.24-4.24z"/><path d="M45.8 34H30v2a6 6 0 0 1-12 0v-2H2.2A2.37 2.37 0 0 0 0 36.51v9A2.37 2.37 0 0 0 2.2 48h43.6a2.37 2.37 0 0 0 2.2-2.51v-9A2.37 2.37 0 0 0 45.8 34zM36 43a2 2 0 1 1 2-2 2 2 0 0 1-2 2zm7 0a2 2 0 1 1 2-2 2 2 0 0 1-2 2z"/></symbol><symbol viewBox="0 0 48 48" id="cd-icon--user" xmlns="http://www.w3.org/2000/svg"><path d="M23 24h2a16 16 0 0 1 16 16v4H7v-4a16 16 0 0 1 16-16z"/><rect x="15" y="4" width="18" height="18" rx="9" ry="9"/></symbol><symbol viewBox="0 0 48 48" id="cd-icon--user--white" xmlns="http://www.w3.org/2000/svg"><path fill="#fff" d="M23 24h2a16 16 0 0 1 16 16v4H7v-4a16 16 0 0 1 16-16z"/><rect fill="#fff" x="15" y="4" width="18" height="18" rx="9" ry="9"/></symbol><symbol viewBox="0 0 48 48" id="cd-icon--users" xmlns="http://www.w3.org/2000/svg"><rect x="9" y="7" width="16" height="16" rx="8" ry="8"/><rect x="27" y="11" width="12" height="12" rx="6" ry="6"/><path d="M34 25h-2a11 11 0 0 0-3.8.69A16 16 0 0 1 34 38v1h11v-3a11 11 0 0 0-11-11zM16 25h2a13 13 0 0 1 13 13v3H3v-3a13 13 0 0 1 13-13z"/></symbol><symbol viewBox="0 0 48 48" id="cd-icon--warning" xmlns="http://www.w3.org/2000/svg"><path d="M37 2H11a8 8 0 0 0-8 8v19a8 8 0 0 0 8 8h14l8.8 8.81a.7.7 0 0 0 1.2-.51V37h2a8 8 0 0 0 8-8V10a8 8 0 0 0-8-8zm-15 8a2 2 0 1 1 4 0v11a2 2 0 0 1-4 0zm2 21a2.5 2.5 0 1 1 2.5-2.5A2.5 2.5 0 0 1 24 31z"/></symbol></svg>